<mxfile host="app.diagrams.net" modified="2023-12-28T11:38:46.502Z" agent="Mozilla/5.0 (Macintosh; Intel Mac OS X 10_15_7) AppleWebKit/605.1.15 (KHTML, like Gecko) Version/17.2.1 Safari/605.1.15" etag="yAEy7Hkya4_aZwe4nrET" version="22.1.12" type="github">
  <diagram name="Page-1" id="S1WasbKRUwJI6cMlkdEB">
    <mxGraphModel dx="4154" dy="1663" grid="1" gridSize="10" guides="1" tooltips="1" connect="1" arrows="1" fold="1" page="1" pageScale="1" pageWidth="1169" pageHeight="827" math="0" shadow="0">
      <root>
        <mxCell id="0" />
        <mxCell id="1" parent="0" />
        <mxCell id="3DuY-Ulm5TOmBUNmaxVy-1" value="&lt;h1&gt;Entity Relationship Diagram&lt;/h1&gt;&lt;p&gt;This is the ER Diagram for Green Super Market e-commerce web site platform.&lt;/p&gt;" style="text;html=1;strokeColor=none;fillColor=none;spacing=5;spacingTop=-20;whiteSpace=wrap;overflow=hidden;rounded=0;" parent="1" vertex="1">
          <mxGeometry x="310" y="1054" width="240" height="130" as="geometry" />
        </mxCell>
        <mxCell id="3DuY-Ulm5TOmBUNmaxVy-3" value="&lt;h1&gt;Sketch Models&lt;/h1&gt;&lt;p&gt;- Customer&lt;/p&gt;&lt;p&gt;- Admin&lt;/p&gt;&lt;p&gt;- Product&lt;/p&gt;&lt;p&gt;- Order&lt;/p&gt;&lt;p&gt;- Cart&lt;/p&gt;&lt;p&gt;- Categories&lt;/p&gt;&lt;p&gt;- Payment Details&lt;/p&gt;" style="text;html=1;strokeColor=none;fillColor=none;spacing=5;spacingTop=-20;whiteSpace=wrap;overflow=hidden;rounded=0;" parent="1" vertex="1">
          <mxGeometry x="310" y="1194" width="190" height="360" as="geometry" />
        </mxCell>
        <mxCell id="3DuY-Ulm5TOmBUNmaxVy-13" style="rounded=0;orthogonalLoop=1;jettySize=auto;html=1;entryX=0.5;entryY=1;entryDx=0;entryDy=0;fontFamily=Helvetica;fontSize=12;fontColor=default;endArrow=none;endFill=0;exitX=0.5;exitY=0;exitDx=0;exitDy=0;" parent="1" source="3DuY-Ulm5TOmBUNmaxVy-4" target="3DuY-Ulm5TOmBUNmaxVy-12" edge="1">
          <mxGeometry relative="1" as="geometry">
            <mxPoint x="-620" y="200" as="sourcePoint" />
          </mxGeometry>
        </mxCell>
        <mxCell id="rVrRJaUetaWtjt3BiSwA-7" style="rounded=0;orthogonalLoop=1;jettySize=auto;html=1;exitX=0.5;exitY=0;exitDx=0;exitDy=0;endArrow=none;endFill=0;" parent="1" source="3DuY-Ulm5TOmBUNmaxVy-4" target="rVrRJaUetaWtjt3BiSwA-3" edge="1">
          <mxGeometry relative="1" as="geometry">
            <mxPoint x="-517.5" y="234.11" as="sourcePoint" />
            <mxPoint x="-552.5" y="159.11" as="targetPoint" />
          </mxGeometry>
        </mxCell>
        <mxCell id="YZjVqz2BdAuiKITETF3J-51" style="edgeStyle=none;shape=link;rounded=0;orthogonalLoop=1;jettySize=auto;html=1;exitX=1;exitY=0.5;exitDx=0;exitDy=0;entryX=0;entryY=0.5;entryDx=0;entryDy=0;labelBackgroundColor=default;strokeColor=default;align=center;verticalAlign=middle;fontFamily=Helvetica;fontSize=11;fontColor=default;endArrow=none;endFill=0;" parent="1" source="3DuY-Ulm5TOmBUNmaxVy-4" target="YZjVqz2BdAuiKITETF3J-50" edge="1">
          <mxGeometry relative="1" as="geometry" />
        </mxCell>
        <mxCell id="YZjVqz2BdAuiKITETF3J-54" value="1" style="edgeLabel;html=1;align=center;verticalAlign=middle;resizable=0;points=[];fontSize=11;fontFamily=Helvetica;fontColor=default;" parent="YZjVqz2BdAuiKITETF3J-51" vertex="1" connectable="0">
          <mxGeometry x="-0.8057" y="-2" relative="1" as="geometry">
            <mxPoint x="5" y="13" as="offset" />
          </mxGeometry>
        </mxCell>
        <mxCell id="DSKI7EyAeoJrv0FDoOlX-86" style="edgeStyle=none;shape=connector;rounded=0;orthogonalLoop=1;jettySize=auto;html=1;exitX=0.5;exitY=1;exitDx=0;exitDy=0;entryX=0.491;entryY=0.057;entryDx=0;entryDy=0;labelBackgroundColor=default;strokeColor=default;align=center;verticalAlign=middle;fontFamily=Helvetica;fontSize=11;fontColor=default;endArrow=none;endFill=0;entryPerimeter=0;" parent="1" source="3DuY-Ulm5TOmBUNmaxVy-4" target="DSKI7EyAeoJrv0FDoOlX-85" edge="1">
          <mxGeometry relative="1" as="geometry" />
        </mxCell>
        <mxCell id="f6Bqa9t4RdQO3D29W2uO-2" value="1" style="edgeLabel;html=1;align=center;verticalAlign=middle;resizable=0;points=[];" parent="DSKI7EyAeoJrv0FDoOlX-86" vertex="1" connectable="0">
          <mxGeometry x="-0.0115" y="-3" relative="1" as="geometry">
            <mxPoint as="offset" />
          </mxGeometry>
        </mxCell>
        <mxCell id="3DuY-Ulm5TOmBUNmaxVy-4" value="Customer" style="rounded=0;whiteSpace=wrap;html=1;strokeWidth=2;fillColor=#f8cecc;strokeColor=#b85450;" parent="1" vertex="1">
          <mxGeometry x="-700" y="313.42" width="100" height="40" as="geometry" />
        </mxCell>
        <mxCell id="3DuY-Ulm5TOmBUNmaxVy-12" value="customer-id" style="ellipse;whiteSpace=wrap;html=1;align=center;fontStyle=4;rounded=0;strokeColor=default;verticalAlign=middle;fontFamily=Helvetica;fontSize=12;fontColor=default;fillColor=default;" parent="1" vertex="1">
          <mxGeometry x="-620" y="154" width="100" height="40" as="geometry" />
        </mxCell>
        <mxCell id="3DuY-Ulm5TOmBUNmaxVy-21" style="edgeStyle=none;shape=connector;rounded=0;orthogonalLoop=1;jettySize=auto;html=1;entryX=0.5;entryY=1;entryDx=0;entryDy=0;labelBackgroundColor=default;strokeColor=default;align=center;verticalAlign=middle;fontFamily=Helvetica;fontSize=12;fontColor=default;endArrow=none;endFill=0;exitX=0.5;exitY=0;exitDx=0;exitDy=0;" parent="1" source="3DuY-Ulm5TOmBUNmaxVy-15" target="3DuY-Ulm5TOmBUNmaxVy-20" edge="1">
          <mxGeometry relative="1" as="geometry" />
        </mxCell>
        <mxCell id="3DuY-Ulm5TOmBUNmaxVy-23" style="edgeStyle=none;shape=connector;rounded=0;orthogonalLoop=1;jettySize=auto;html=1;entryX=0.469;entryY=0.967;entryDx=0;entryDy=0;labelBackgroundColor=default;strokeColor=default;align=center;verticalAlign=middle;fontFamily=Helvetica;fontSize=12;fontColor=default;endArrow=none;endFill=0;entryPerimeter=0;exitX=0.5;exitY=0;exitDx=0;exitDy=0;" parent="1" target="3DuY-Ulm5TOmBUNmaxVy-22" edge="1" source="3DuY-Ulm5TOmBUNmaxVy-15">
          <mxGeometry relative="1" as="geometry">
            <mxPoint x="-745" y="81.61000000000001" as="sourcePoint" />
            <mxPoint x="-741.7000000000003" y="29.20999999999998" as="targetPoint" />
          </mxGeometry>
        </mxCell>
        <mxCell id="3DuY-Ulm5TOmBUNmaxVy-15" value="name" style="ellipse;whiteSpace=wrap;html=1;align=center;rounded=0;strokeColor=default;verticalAlign=middle;fontFamily=Helvetica;fontSize=12;fontColor=default;fillColor=default;" parent="1" vertex="1">
          <mxGeometry x="-710" y="190" width="100" height="40" as="geometry" />
        </mxCell>
        <mxCell id="3DuY-Ulm5TOmBUNmaxVy-16" style="edgeStyle=none;shape=connector;rounded=0;orthogonalLoop=1;jettySize=auto;html=1;entryX=0.5;entryY=1;entryDx=0;entryDy=0;labelBackgroundColor=default;strokeColor=default;align=center;verticalAlign=middle;fontFamily=Helvetica;fontSize=12;fontColor=default;endArrow=none;endFill=0;" parent="1" source="3DuY-Ulm5TOmBUNmaxVy-4" target="3DuY-Ulm5TOmBUNmaxVy-15" edge="1">
          <mxGeometry relative="1" as="geometry" />
        </mxCell>
        <mxCell id="3DuY-Ulm5TOmBUNmaxVy-20" value="first-name" style="ellipse;whiteSpace=wrap;html=1;align=center;rounded=0;strokeColor=default;verticalAlign=middle;fontFamily=Helvetica;fontSize=12;fontColor=default;fillColor=default;" parent="1" vertex="1">
          <mxGeometry x="-760" y="120.00000000000001" width="100" height="40" as="geometry" />
        </mxCell>
        <mxCell id="3DuY-Ulm5TOmBUNmaxVy-22" value="last-name" style="ellipse;whiteSpace=wrap;html=1;align=center;rounded=0;strokeColor=default;verticalAlign=middle;fontFamily=Helvetica;fontSize=12;fontColor=default;fillColor=default;" parent="1" vertex="1">
          <mxGeometry x="-670" y="90.00000000000001" width="100" height="40" as="geometry" />
        </mxCell>
        <mxCell id="3DuY-Ulm5TOmBUNmaxVy-24" style="edgeStyle=none;shape=connector;rounded=0;orthogonalLoop=1;jettySize=auto;html=1;exitX=1;exitY=0.5;exitDx=0;exitDy=0;labelBackgroundColor=default;strokeColor=default;align=center;verticalAlign=middle;fontFamily=Helvetica;fontSize=12;fontColor=default;endArrow=none;endFill=0;" parent="1" source="3DuY-Ulm5TOmBUNmaxVy-4" target="3DuY-Ulm5TOmBUNmaxVy-4" edge="1">
          <mxGeometry relative="1" as="geometry" />
        </mxCell>
        <mxCell id="YZjVqz2BdAuiKITETF3J-139" style="edgeStyle=none;shape=connector;rounded=0;orthogonalLoop=1;jettySize=auto;html=1;entryX=0.983;entryY=0.388;entryDx=0;entryDy=0;labelBackgroundColor=default;strokeColor=default;align=center;verticalAlign=middle;fontFamily=Helvetica;fontSize=11;fontColor=default;endArrow=none;endFill=0;entryPerimeter=0;exitX=0;exitY=0.5;exitDx=0;exitDy=0;" parent="1" source="rVrRJaUetaWtjt3BiSwA-1" target="YZjVqz2BdAuiKITETF3J-138" edge="1">
          <mxGeometry relative="1" as="geometry">
            <mxPoint x="-527" y="1670" as="sourcePoint" />
          </mxGeometry>
        </mxCell>
        <mxCell id="YZjVqz2BdAuiKITETF3J-141" style="edgeStyle=none;shape=connector;rounded=0;orthogonalLoop=1;jettySize=auto;html=1;entryX=0.5;entryY=1;entryDx=0;entryDy=0;labelBackgroundColor=default;strokeColor=default;align=center;verticalAlign=middle;fontFamily=Helvetica;fontSize=11;fontColor=default;endArrow=none;endFill=0;exitX=0.5;exitY=0;exitDx=0;exitDy=0;" parent="1" source="rVrRJaUetaWtjt3BiSwA-1" target="YZjVqz2BdAuiKITETF3J-140" edge="1">
          <mxGeometry relative="1" as="geometry">
            <mxPoint x="-530" y="1670" as="sourcePoint" />
          </mxGeometry>
        </mxCell>
        <mxCell id="YZjVqz2BdAuiKITETF3J-143" style="edgeStyle=none;shape=connector;rounded=0;orthogonalLoop=1;jettySize=auto;html=1;entryX=0;entryY=0.5;entryDx=0;entryDy=0;labelBackgroundColor=default;strokeColor=default;align=center;verticalAlign=middle;fontFamily=Helvetica;fontSize=11;fontColor=default;endArrow=none;endFill=0;exitX=0.5;exitY=0;exitDx=0;exitDy=0;" parent="1" source="rVrRJaUetaWtjt3BiSwA-1" target="YZjVqz2BdAuiKITETF3J-142" edge="1">
          <mxGeometry relative="1" as="geometry" />
        </mxCell>
        <mxCell id="rVrRJaUetaWtjt3BiSwA-1" value="Admin" style="rounded=0;whiteSpace=wrap;html=1;strokeWidth=2;fillColor=#f8cecc;strokeColor=#b85450;" parent="1" vertex="1">
          <mxGeometry x="-587" y="1590" width="100" height="40" as="geometry" />
        </mxCell>
        <mxCell id="YZjVqz2BdAuiKITETF3J-11" style="edgeStyle=none;shape=link;rounded=0;orthogonalLoop=1;jettySize=auto;html=1;entryX=0.5;entryY=0;entryDx=0;entryDy=0;labelBackgroundColor=default;strokeColor=default;align=center;verticalAlign=middle;fontFamily=Helvetica;fontSize=11;fontColor=default;endArrow=none;endFill=0;exitX=0.5;exitY=1;exitDx=0;exitDy=0;" parent="1" source="rVrRJaUetaWtjt3BiSwA-2" target="YZjVqz2BdAuiKITETF3J-8" edge="1">
          <mxGeometry relative="1" as="geometry">
            <mxPoint x="-160" y="460" as="sourcePoint" />
          </mxGeometry>
        </mxCell>
        <mxCell id="8Ajd_Qfqa1L-vim18DAo-34" value="M" style="edgeLabel;html=1;align=center;verticalAlign=middle;resizable=0;points=[];fontSize=11;fontFamily=Helvetica;fontColor=default;" vertex="1" connectable="0" parent="YZjVqz2BdAuiKITETF3J-11">
          <mxGeometry x="0.109" y="-2" relative="1" as="geometry">
            <mxPoint as="offset" />
          </mxGeometry>
        </mxCell>
        <mxCell id="DSKI7EyAeoJrv0FDoOlX-72" style="edgeStyle=none;shape=connector;rounded=0;orthogonalLoop=1;jettySize=auto;html=1;exitX=0.5;exitY=0;exitDx=0;exitDy=0;entryX=0.5;entryY=1;entryDx=0;entryDy=0;labelBackgroundColor=default;strokeColor=default;align=center;verticalAlign=middle;fontFamily=Helvetica;fontSize=11;fontColor=default;endArrow=none;endFill=0;" parent="1" source="rVrRJaUetaWtjt3BiSwA-2" target="YZjVqz2BdAuiKITETF3J-95" edge="1">
          <mxGeometry relative="1" as="geometry" />
        </mxCell>
        <mxCell id="DSKI7EyAeoJrv0FDoOlX-76" value="1" style="edgeLabel;html=1;align=center;verticalAlign=middle;resizable=0;points=[];fontSize=11;fontFamily=Helvetica;fontColor=default;" parent="DSKI7EyAeoJrv0FDoOlX-72" vertex="1" connectable="0">
          <mxGeometry x="0.2752" relative="1" as="geometry">
            <mxPoint as="offset" />
          </mxGeometry>
        </mxCell>
        <mxCell id="rVrRJaUetaWtjt3BiSwA-2" value="Product" style="rounded=0;whiteSpace=wrap;html=1;strokeWidth=2;fillColor=#f8cecc;strokeColor=#b85450;" parent="1" vertex="1">
          <mxGeometry x="-210" y="428.42" width="100" height="40" as="geometry" />
        </mxCell>
        <mxCell id="rVrRJaUetaWtjt3BiSwA-3" value="email" style="ellipse;whiteSpace=wrap;html=1;align=center;rounded=0;strokeColor=default;verticalAlign=middle;fontFamily=Helvetica;fontSize=12;fontColor=default;fillColor=default;" parent="1" vertex="1">
          <mxGeometry x="-570" y="253.42000000000002" width="100" height="40" as="geometry" />
        </mxCell>
        <mxCell id="rVrRJaUetaWtjt3BiSwA-11" value="password" style="ellipse;whiteSpace=wrap;html=1;align=center;rounded=0;strokeColor=default;verticalAlign=middle;fontFamily=Helvetica;fontSize=12;fontColor=default;fillColor=default;" parent="1" vertex="1">
          <mxGeometry x="-770" y="243.42000000000002" width="100" height="40" as="geometry" />
        </mxCell>
        <mxCell id="rVrRJaUetaWtjt3BiSwA-12" style="edgeStyle=none;shape=connector;rounded=0;orthogonalLoop=1;jettySize=auto;html=1;entryX=0.759;entryY=0.993;entryDx=0;entryDy=0;labelBackgroundColor=default;strokeColor=default;align=center;verticalAlign=middle;fontFamily=Helvetica;fontSize=11;fontColor=default;endArrow=none;endFill=0;exitX=0.5;exitY=0;exitDx=0;exitDy=0;entryPerimeter=0;" parent="1" source="3DuY-Ulm5TOmBUNmaxVy-4" target="rVrRJaUetaWtjt3BiSwA-11" edge="1">
          <mxGeometry relative="1" as="geometry">
            <mxPoint x="-535" y="235.69" as="sourcePoint" />
          </mxGeometry>
        </mxCell>
        <mxCell id="rVrRJaUetaWtjt3BiSwA-18" value="Cart-Item" style="rounded=0;whiteSpace=wrap;html=1;strokeWidth=2;fillColor=#f8cecc;strokeColor=#b85450;" parent="1" vertex="1">
          <mxGeometry x="-210" y="93.99999999999994" width="100" height="40" as="geometry" />
        </mxCell>
        <mxCell id="rVrRJaUetaWtjt3BiSwA-19" value="Cart" style="rounded=0;whiteSpace=wrap;html=1;strokeWidth=2;fillColor=#f8cecc;strokeColor=#b85450;" parent="1" vertex="1">
          <mxGeometry x="-470" y="93.42" width="100" height="40" as="geometry" />
        </mxCell>
        <mxCell id="YZjVqz2BdAuiKITETF3J-15" value="" style="edgeStyle=none;shape=connector;rounded=0;orthogonalLoop=1;jettySize=auto;html=1;labelBackgroundColor=default;strokeColor=default;align=center;verticalAlign=middle;fontFamily=Helvetica;fontSize=11;fontColor=default;endArrow=none;endFill=0;entryX=0.5;entryY=0;entryDx=0;entryDy=0;exitX=1;exitY=0.5;exitDx=0;exitDy=0;" parent="1" source="rVrRJaUetaWtjt3BiSwA-20" target="YZjVqz2BdAuiKITETF3J-14" edge="1">
          <mxGeometry relative="1" as="geometry" />
        </mxCell>
        <mxCell id="YZjVqz2BdAuiKITETF3J-18" value="1" style="edgeLabel;html=1;align=center;verticalAlign=middle;resizable=0;points=[];fontSize=11;fontFamily=Helvetica;fontColor=default;" parent="YZjVqz2BdAuiKITETF3J-15" vertex="1" connectable="0">
          <mxGeometry x="-0.7909" y="2" relative="1" as="geometry">
            <mxPoint x="2" y="2" as="offset" />
          </mxGeometry>
        </mxCell>
        <mxCell id="rVrRJaUetaWtjt3BiSwA-20" value="MainCategories" style="rounded=0;whiteSpace=wrap;html=1;strokeWidth=2;fillColor=#f8cecc;strokeColor=#b85450;" parent="1" vertex="1">
          <mxGeometry x="-380" y="900.0000000000001" width="100" height="40" as="geometry" />
        </mxCell>
        <mxCell id="rVrRJaUetaWtjt3BiSwA-23" value="&lt;u&gt;product-id&lt;/u&gt;" style="ellipse;whiteSpace=wrap;html=1;align=center;rounded=0;strokeColor=default;verticalAlign=middle;fontFamily=Helvetica;fontSize=12;fontColor=default;fillColor=default;" parent="1" vertex="1">
          <mxGeometry x="-110" y="355.92" width="100" height="40" as="geometry" />
        </mxCell>
        <mxCell id="rVrRJaUetaWtjt3BiSwA-24" value="name" style="ellipse;whiteSpace=wrap;html=1;align=center;rounded=0;strokeColor=default;verticalAlign=middle;fontFamily=Helvetica;fontSize=12;fontColor=default;fillColor=default;" parent="1" vertex="1">
          <mxGeometry x="-120" y="303.42" width="100" height="40" as="geometry" />
        </mxCell>
        <mxCell id="rVrRJaUetaWtjt3BiSwA-25" value="description" style="ellipse;whiteSpace=wrap;html=1;align=center;rounded=0;strokeColor=default;verticalAlign=middle;fontFamily=Helvetica;fontSize=12;fontColor=default;fillColor=default;" parent="1" vertex="1">
          <mxGeometry x="-360" y="315.92" width="100" height="40" as="geometry" />
        </mxCell>
        <mxCell id="rVrRJaUetaWtjt3BiSwA-28" value="" style="endArrow=none;html=1;rounded=0;labelBackgroundColor=default;strokeColor=default;align=center;verticalAlign=middle;fontFamily=Helvetica;fontSize=11;fontColor=default;shape=connector;entryX=0.5;entryY=0;entryDx=0;entryDy=0;exitX=0.5;exitY=1;exitDx=0;exitDy=0;" parent="1" source="rVrRJaUetaWtjt3BiSwA-23" target="rVrRJaUetaWtjt3BiSwA-2" edge="1">
          <mxGeometry width="50" height="50" relative="1" as="geometry">
            <mxPoint x="-40" y="473.42" as="sourcePoint" />
            <mxPoint x="10" y="423.42" as="targetPoint" />
          </mxGeometry>
        </mxCell>
        <mxCell id="rVrRJaUetaWtjt3BiSwA-29" value="" style="endArrow=none;html=1;rounded=0;labelBackgroundColor=default;strokeColor=default;align=center;verticalAlign=middle;fontFamily=Helvetica;fontSize=11;fontColor=default;shape=connector;entryX=0.5;entryY=0;entryDx=0;entryDy=0;exitX=0;exitY=0.5;exitDx=0;exitDy=0;" parent="1" source="rVrRJaUetaWtjt3BiSwA-24" target="rVrRJaUetaWtjt3BiSwA-2" edge="1">
          <mxGeometry width="50" height="50" relative="1" as="geometry">
            <mxPoint x="-30" y="449.42" as="sourcePoint" />
            <mxPoint x="-6" y="467.42" as="targetPoint" />
          </mxGeometry>
        </mxCell>
        <mxCell id="rVrRJaUetaWtjt3BiSwA-30" value="" style="endArrow=none;html=1;rounded=0;labelBackgroundColor=default;strokeColor=default;align=center;verticalAlign=middle;fontFamily=Helvetica;fontSize=11;fontColor=default;shape=connector;exitX=1;exitY=0.5;exitDx=0;exitDy=0;entryX=0.5;entryY=0;entryDx=0;entryDy=0;" parent="1" source="rVrRJaUetaWtjt3BiSwA-25" target="rVrRJaUetaWtjt3BiSwA-2" edge="1">
          <mxGeometry width="50" height="50" relative="1" as="geometry">
            <mxPoint x="-24" y="473.42" as="sourcePoint" />
            <mxPoint x="-210" y="396" as="targetPoint" />
          </mxGeometry>
        </mxCell>
        <mxCell id="rVrRJaUetaWtjt3BiSwA-34" value="&lt;u&gt;main-category-id&lt;/u&gt;" style="ellipse;whiteSpace=wrap;html=1;align=center;rounded=0;strokeColor=default;verticalAlign=middle;fontFamily=Helvetica;fontSize=12;fontColor=default;fillColor=default;" parent="1" vertex="1">
          <mxGeometry x="-464" y="1030" width="110" height="50" as="geometry" />
        </mxCell>
        <mxCell id="rVrRJaUetaWtjt3BiSwA-35" value="name" style="ellipse;whiteSpace=wrap;html=1;align=center;rounded=0;strokeColor=default;verticalAlign=middle;fontFamily=Helvetica;fontSize=12;fontColor=default;fillColor=default;" parent="1" vertex="1">
          <mxGeometry x="-360" y="1013.42" width="100" height="40" as="geometry" />
        </mxCell>
        <mxCell id="rVrRJaUetaWtjt3BiSwA-36" value="description" style="ellipse;whiteSpace=wrap;html=1;align=center;rounded=0;strokeColor=default;verticalAlign=middle;fontFamily=Helvetica;fontSize=12;fontColor=default;fillColor=default;" parent="1" vertex="1">
          <mxGeometry x="-460" y="983.42" width="100" height="40" as="geometry" />
        </mxCell>
        <mxCell id="rVrRJaUetaWtjt3BiSwA-37" value="" style="endArrow=none;html=1;rounded=0;labelBackgroundColor=default;strokeColor=default;align=center;verticalAlign=middle;fontFamily=Helvetica;fontSize=11;fontColor=default;shape=connector;entryX=0.5;entryY=1;entryDx=0;entryDy=0;exitX=1;exitY=0;exitDx=0;exitDy=0;" parent="1" source="rVrRJaUetaWtjt3BiSwA-34" target="rVrRJaUetaWtjt3BiSwA-20" edge="1">
          <mxGeometry width="50" height="50" relative="1" as="geometry">
            <mxPoint x="296" y="392.42" as="sourcePoint" />
            <mxPoint x="319" y="432.42" as="targetPoint" />
          </mxGeometry>
        </mxCell>
        <mxCell id="rVrRJaUetaWtjt3BiSwA-38" value="" style="endArrow=none;html=1;rounded=0;labelBackgroundColor=default;strokeColor=default;align=center;verticalAlign=middle;fontFamily=Helvetica;fontSize=11;fontColor=default;shape=connector;entryX=0.5;entryY=1;entryDx=0;entryDy=0;exitX=0.5;exitY=0;exitDx=0;exitDy=0;" parent="1" source="rVrRJaUetaWtjt3BiSwA-35" target="rVrRJaUetaWtjt3BiSwA-20" edge="1">
          <mxGeometry width="50" height="50" relative="1" as="geometry">
            <mxPoint x="-310" y="980" as="sourcePoint" />
            <mxPoint x="380" y="458.42" as="targetPoint" />
          </mxGeometry>
        </mxCell>
        <mxCell id="rVrRJaUetaWtjt3BiSwA-39" value="" style="endArrow=none;html=1;rounded=0;labelBackgroundColor=default;strokeColor=default;align=center;verticalAlign=middle;fontFamily=Helvetica;fontSize=11;fontColor=default;shape=connector;entryX=1;entryY=0;entryDx=0;entryDy=0;exitX=0.5;exitY=1;exitDx=0;exitDy=0;" parent="1" source="rVrRJaUetaWtjt3BiSwA-20" target="rVrRJaUetaWtjt3BiSwA-36" edge="1">
          <mxGeometry width="50" height="50" relative="1" as="geometry">
            <mxPoint x="260" y="472.42" as="sourcePoint" />
            <mxPoint x="280" y="498.42" as="targetPoint" />
          </mxGeometry>
        </mxCell>
        <mxCell id="rVrRJaUetaWtjt3BiSwA-40" value="&lt;u&gt;cart-item-id&lt;/u&gt;" style="ellipse;whiteSpace=wrap;html=1;align=center;rounded=0;strokeColor=default;verticalAlign=middle;fontFamily=Helvetica;fontSize=12;fontColor=default;fillColor=default;" parent="1" vertex="1">
          <mxGeometry x="-292" y="36.99999999999994" width="100" height="40" as="geometry" />
        </mxCell>
        <mxCell id="rVrRJaUetaWtjt3BiSwA-44" style="edgeStyle=none;shape=connector;rounded=0;orthogonalLoop=1;jettySize=auto;html=1;exitX=0.5;exitY=0;exitDx=0;exitDy=0;entryX=1;entryY=0.5;entryDx=0;entryDy=0;labelBackgroundColor=default;strokeColor=default;align=center;verticalAlign=middle;fontFamily=Helvetica;fontSize=11;fontColor=default;endArrow=none;endFill=0;" parent="1" source="rVrRJaUetaWtjt3BiSwA-18" target="rVrRJaUetaWtjt3BiSwA-40" edge="1">
          <mxGeometry relative="1" as="geometry">
            <mxPoint x="-250" y="1033.42" as="sourcePoint" />
            <mxPoint x="-280" y="1007.42" as="targetPoint" />
          </mxGeometry>
        </mxCell>
        <mxCell id="YZjVqz2BdAuiKITETF3J-28" value="" style="edgeStyle=none;shape=connector;rounded=0;orthogonalLoop=1;jettySize=auto;html=1;labelBackgroundColor=default;strokeColor=default;align=center;verticalAlign=middle;fontFamily=Helvetica;fontSize=11;fontColor=default;endArrow=none;endFill=0;entryX=0.5;entryY=0;entryDx=0;entryDy=0;exitX=0.5;exitY=1;exitDx=0;exitDy=0;" parent="1" source="rVrRJaUetaWtjt3BiSwA-46" target="YZjVqz2BdAuiKITETF3J-27" edge="1">
          <mxGeometry relative="1" as="geometry">
            <mxPoint x="-240" y="1260" as="sourcePoint" />
          </mxGeometry>
        </mxCell>
        <mxCell id="8Ajd_Qfqa1L-vim18DAo-36" value="1" style="edgeLabel;html=1;align=center;verticalAlign=middle;resizable=0;points=[];fontSize=11;fontFamily=Helvetica;fontColor=default;" vertex="1" connectable="0" parent="YZjVqz2BdAuiKITETF3J-28">
          <mxGeometry x="0.5162" y="2" relative="1" as="geometry">
            <mxPoint as="offset" />
          </mxGeometry>
        </mxCell>
        <mxCell id="rVrRJaUetaWtjt3BiSwA-46" value="SubCategories01" style="rounded=0;whiteSpace=wrap;html=1;strokeWidth=2;fillColor=#f8cecc;strokeColor=#b85450;" parent="1" vertex="1">
          <mxGeometry x="-290" y="1201" width="100" height="40" as="geometry" />
        </mxCell>
        <mxCell id="rVrRJaUetaWtjt3BiSwA-47" value="&lt;u&gt;sub-category-id&lt;/u&gt;" style="ellipse;whiteSpace=wrap;html=1;align=center;rounded=0;strokeColor=default;verticalAlign=middle;fontFamily=Helvetica;fontSize=12;fontColor=default;fillColor=default;" parent="1" vertex="1">
          <mxGeometry x="-430" y="1144" width="110" height="50" as="geometry" />
        </mxCell>
        <mxCell id="rVrRJaUetaWtjt3BiSwA-48" value="name" style="ellipse;whiteSpace=wrap;html=1;align=center;rounded=0;strokeColor=default;verticalAlign=middle;fontFamily=Helvetica;fontSize=12;fontColor=default;fillColor=default;" parent="1" vertex="1">
          <mxGeometry x="-455" y="1204.38" width="100" height="40" as="geometry" />
        </mxCell>
        <mxCell id="rVrRJaUetaWtjt3BiSwA-49" value="description" style="ellipse;whiteSpace=wrap;html=1;align=center;rounded=0;strokeColor=default;verticalAlign=middle;fontFamily=Helvetica;fontSize=12;fontColor=default;fillColor=default;" parent="1" vertex="1">
          <mxGeometry x="-450" y="1274.38" width="100" height="40" as="geometry" />
        </mxCell>
        <mxCell id="rVrRJaUetaWtjt3BiSwA-50" value="" style="endArrow=none;html=1;rounded=0;labelBackgroundColor=default;strokeColor=default;align=center;verticalAlign=middle;fontFamily=Helvetica;fontSize=11;fontColor=default;shape=connector;entryX=0;entryY=0.5;entryDx=0;entryDy=0;exitX=0.5;exitY=1;exitDx=0;exitDy=0;" parent="1" source="rVrRJaUetaWtjt3BiSwA-47" target="rVrRJaUetaWtjt3BiSwA-46" edge="1">
          <mxGeometry width="50" height="50" relative="1" as="geometry">
            <mxPoint x="683" y="394.92" as="sourcePoint" />
            <mxPoint x="706" y="434.92" as="targetPoint" />
          </mxGeometry>
        </mxCell>
        <mxCell id="rVrRJaUetaWtjt3BiSwA-51" value="" style="endArrow=none;html=1;rounded=0;labelBackgroundColor=default;strokeColor=default;align=center;verticalAlign=middle;fontFamily=Helvetica;fontSize=11;fontColor=default;shape=connector;entryX=0;entryY=0.5;entryDx=0;entryDy=0;" parent="1" source="rVrRJaUetaWtjt3BiSwA-48" target="rVrRJaUetaWtjt3BiSwA-46" edge="1">
          <mxGeometry width="50" height="50" relative="1" as="geometry">
            <mxPoint x="637" y="440.92" as="sourcePoint" />
            <mxPoint x="657" y="466.92" as="targetPoint" />
          </mxGeometry>
        </mxCell>
        <mxCell id="rVrRJaUetaWtjt3BiSwA-52" value="" style="endArrow=none;html=1;rounded=0;labelBackgroundColor=default;strokeColor=default;align=center;verticalAlign=middle;fontFamily=Helvetica;fontSize=11;fontColor=default;shape=connector;entryX=0.5;entryY=0;entryDx=0;entryDy=0;exitX=0;exitY=0.5;exitDx=0;exitDy=0;" parent="1" source="rVrRJaUetaWtjt3BiSwA-46" target="rVrRJaUetaWtjt3BiSwA-49" edge="1">
          <mxGeometry width="50" height="50" relative="1" as="geometry">
            <mxPoint x="647" y="474.92" as="sourcePoint" />
            <mxPoint x="667" y="500.92" as="targetPoint" />
          </mxGeometry>
        </mxCell>
        <mxCell id="YZjVqz2BdAuiKITETF3J-10" style="rounded=0;orthogonalLoop=1;jettySize=auto;html=1;entryX=0.5;entryY=0;entryDx=0;entryDy=0;endArrow=none;endFill=0;shape=link;exitX=0.5;exitY=1;exitDx=0;exitDy=0;" parent="1" source="YZjVqz2BdAuiKITETF3J-8" target="rVrRJaUetaWtjt3BiSwA-20" edge="1">
          <mxGeometry relative="1" as="geometry" />
        </mxCell>
        <mxCell id="YZjVqz2BdAuiKITETF3J-12" value="1" style="edgeLabel;html=1;align=center;verticalAlign=middle;resizable=0;points=[];fontSize=11;fontFamily=Helvetica;fontColor=default;" parent="YZjVqz2BdAuiKITETF3J-10" vertex="1" connectable="0">
          <mxGeometry x="0.5557" relative="1" as="geometry">
            <mxPoint as="offset" />
          </mxGeometry>
        </mxCell>
        <mxCell id="YZjVqz2BdAuiKITETF3J-8" value="has" style="rhombus;whiteSpace=wrap;html=1;rounded=0;strokeWidth=2;fillColor=#dae8fc;strokeColor=#6c8ebf;" parent="1" vertex="1">
          <mxGeometry x="-325" y="763.4200000000001" width="80" height="80" as="geometry" />
        </mxCell>
        <mxCell id="YZjVqz2BdAuiKITETF3J-16" style="edgeStyle=none;shape=link;rounded=0;orthogonalLoop=1;jettySize=auto;html=1;entryX=0.5;entryY=0;entryDx=0;entryDy=0;labelBackgroundColor=default;strokeColor=default;align=center;verticalAlign=middle;fontFamily=Helvetica;fontSize=11;fontColor=default;endArrow=none;endFill=0;exitX=0.5;exitY=1;exitDx=0;exitDy=0;" parent="1" source="YZjVqz2BdAuiKITETF3J-14" target="rVrRJaUetaWtjt3BiSwA-46" edge="1">
          <mxGeometry relative="1" as="geometry">
            <mxPoint x="595" y="466.42" as="sourcePoint" />
          </mxGeometry>
        </mxCell>
        <mxCell id="YZjVqz2BdAuiKITETF3J-17" value="M" style="edgeLabel;html=1;align=center;verticalAlign=middle;resizable=0;points=[];fontSize=11;fontFamily=Helvetica;fontColor=default;" parent="YZjVqz2BdAuiKITETF3J-16" vertex="1" connectable="0">
          <mxGeometry x="0.7305" y="-2" relative="1" as="geometry">
            <mxPoint y="-2" as="offset" />
          </mxGeometry>
        </mxCell>
        <mxCell id="YZjVqz2BdAuiKITETF3J-14" value="has" style="rhombus;whiteSpace=wrap;html=1;rounded=0;strokeWidth=2;fillColor=#dae8fc;strokeColor=#6c8ebf;" parent="1" vertex="1">
          <mxGeometry x="-280" y="1053.42" width="80" height="80" as="geometry" />
        </mxCell>
        <mxCell id="YZjVqz2BdAuiKITETF3J-19" value="SubCategories02" style="rounded=0;whiteSpace=wrap;html=1;strokeWidth=2;fillColor=#f8cecc;strokeColor=#b85450;" parent="1" vertex="1">
          <mxGeometry x="-140" y="1340" width="100" height="40" as="geometry" />
        </mxCell>
        <mxCell id="YZjVqz2BdAuiKITETF3J-20" value="&lt;u&gt;sub-category-id&lt;/u&gt;" style="ellipse;whiteSpace=wrap;html=1;align=center;rounded=0;strokeColor=default;verticalAlign=middle;fontFamily=Helvetica;fontSize=12;fontColor=default;fillColor=default;" parent="1" vertex="1">
          <mxGeometry x="-250" y="1430" width="110" height="50" as="geometry" />
        </mxCell>
        <mxCell id="8Ajd_Qfqa1L-vim18DAo-39" style="edgeStyle=none;shape=connector;rounded=0;orthogonalLoop=1;jettySize=auto;html=1;entryX=0.5;entryY=1;entryDx=0;entryDy=0;labelBackgroundColor=default;strokeColor=default;align=center;verticalAlign=middle;fontFamily=Helvetica;fontSize=11;fontColor=default;endArrow=none;endFill=0;" edge="1" parent="1" source="YZjVqz2BdAuiKITETF3J-21" target="YZjVqz2BdAuiKITETF3J-19">
          <mxGeometry relative="1" as="geometry" />
        </mxCell>
        <mxCell id="YZjVqz2BdAuiKITETF3J-21" value="name" style="ellipse;whiteSpace=wrap;html=1;align=center;rounded=0;strokeColor=default;verticalAlign=middle;fontFamily=Helvetica;fontSize=12;fontColor=default;fillColor=default;" parent="1" vertex="1">
          <mxGeometry x="-181" y="1475" width="100" height="40" as="geometry" />
        </mxCell>
        <mxCell id="YZjVqz2BdAuiKITETF3J-22" value="description" style="ellipse;whiteSpace=wrap;html=1;align=center;rounded=0;strokeColor=default;verticalAlign=middle;fontFamily=Helvetica;fontSize=12;fontColor=default;fillColor=default;" parent="1" vertex="1">
          <mxGeometry x="-107" y="1425" width="100" height="40" as="geometry" />
        </mxCell>
        <mxCell id="YZjVqz2BdAuiKITETF3J-23" value="" style="endArrow=none;html=1;rounded=0;labelBackgroundColor=default;strokeColor=default;align=center;verticalAlign=middle;fontFamily=Helvetica;fontSize=11;fontColor=default;shape=connector;entryX=0.5;entryY=1;entryDx=0;entryDy=0;exitX=0.5;exitY=0;exitDx=0;exitDy=0;" parent="1" source="YZjVqz2BdAuiKITETF3J-20" target="YZjVqz2BdAuiKITETF3J-19" edge="1">
          <mxGeometry width="50" height="50" relative="1" as="geometry">
            <mxPoint x="570.29" y="464" as="sourcePoint" />
            <mxPoint x="593.29" y="504" as="targetPoint" />
          </mxGeometry>
        </mxCell>
        <mxCell id="YZjVqz2BdAuiKITETF3J-25" value="" style="endArrow=none;html=1;rounded=0;labelBackgroundColor=default;strokeColor=default;align=center;verticalAlign=middle;fontFamily=Helvetica;fontSize=11;fontColor=default;shape=connector;entryX=0.5;entryY=0;entryDx=0;entryDy=0;exitX=0.5;exitY=1;exitDx=0;exitDy=0;" parent="1" source="YZjVqz2BdAuiKITETF3J-19" target="YZjVqz2BdAuiKITETF3J-22" edge="1">
          <mxGeometry width="50" height="50" relative="1" as="geometry">
            <mxPoint x="534.29" y="544" as="sourcePoint" />
            <mxPoint x="554.29" y="570" as="targetPoint" />
          </mxGeometry>
        </mxCell>
        <mxCell id="YZjVqz2BdAuiKITETF3J-29" style="edgeStyle=none;shape=link;rounded=0;orthogonalLoop=1;jettySize=auto;html=1;entryX=0;entryY=0.5;entryDx=0;entryDy=0;labelBackgroundColor=default;strokeColor=default;align=center;verticalAlign=middle;fontFamily=Helvetica;fontSize=11;fontColor=default;endArrow=none;endFill=0;exitX=1;exitY=0.5;exitDx=0;exitDy=0;" parent="1" source="YZjVqz2BdAuiKITETF3J-27" target="YZjVqz2BdAuiKITETF3J-19" edge="1">
          <mxGeometry relative="1" as="geometry">
            <mxPoint x="887.79" y="263.42" as="sourcePoint" />
          </mxGeometry>
        </mxCell>
        <mxCell id="YZjVqz2BdAuiKITETF3J-45" value="M" style="edgeLabel;html=1;align=center;verticalAlign=middle;resizable=0;points=[];fontSize=11;fontFamily=Helvetica;fontColor=default;" parent="YZjVqz2BdAuiKITETF3J-29" vertex="1" connectable="0">
          <mxGeometry x="0.5782" y="-1" relative="1" as="geometry">
            <mxPoint as="offset" />
          </mxGeometry>
        </mxCell>
        <mxCell id="YZjVqz2BdAuiKITETF3J-27" value="has" style="rhombus;whiteSpace=wrap;html=1;rounded=0;strokeWidth=2;fillColor=#dae8fc;strokeColor=#6c8ebf;" parent="1" vertex="1">
          <mxGeometry x="-282" y="1320" width="80" height="80" as="geometry" />
        </mxCell>
        <mxCell id="YZjVqz2BdAuiKITETF3J-33" style="edgeStyle=none;shape=connector;rounded=0;orthogonalLoop=1;jettySize=auto;html=1;entryX=0.5;entryY=0;entryDx=0;entryDy=0;labelBackgroundColor=default;strokeColor=default;align=center;verticalAlign=middle;fontFamily=Helvetica;fontSize=11;fontColor=default;endArrow=none;endFill=0;exitX=0.5;exitY=1;exitDx=0;exitDy=0;" parent="1" source="YZjVqz2BdAuiKITETF3J-31" target="YZjVqz2BdAuiKITETF3J-32" edge="1">
          <mxGeometry relative="1" as="geometry" />
        </mxCell>
        <mxCell id="YZjVqz2BdAuiKITETF3J-31" value="Brand" style="rounded=0;whiteSpace=wrap;html=1;strokeWidth=2;fillColor=#f8cecc;strokeColor=#b85450;" parent="1" vertex="1">
          <mxGeometry x="-580" y="637.42" width="100" height="40" as="geometry" />
        </mxCell>
        <mxCell id="YZjVqz2BdAuiKITETF3J-32" value="&lt;u&gt;brand-id&lt;/u&gt;" style="ellipse;whiteSpace=wrap;html=1;align=center;rounded=0;strokeColor=default;verticalAlign=middle;fontFamily=Helvetica;fontSize=12;fontColor=default;fillColor=default;" parent="1" vertex="1">
          <mxGeometry x="-607" y="746.42" width="100" height="40" as="geometry" />
        </mxCell>
        <mxCell id="YZjVqz2BdAuiKITETF3J-34" value="brand-name" style="ellipse;whiteSpace=wrap;html=1;align=center;rounded=0;strokeColor=default;verticalAlign=middle;fontFamily=Helvetica;fontSize=12;fontColor=default;fillColor=default;" parent="1" vertex="1">
          <mxGeometry x="-520" y="706.42" width="100" height="40" as="geometry" />
        </mxCell>
        <mxCell id="YZjVqz2BdAuiKITETF3J-35" style="edgeStyle=none;shape=connector;rounded=0;orthogonalLoop=1;jettySize=auto;html=1;entryX=0.128;entryY=0.17;entryDx=0;entryDy=0;labelBackgroundColor=default;strokeColor=default;align=center;verticalAlign=middle;fontFamily=Helvetica;fontSize=11;fontColor=default;endArrow=none;endFill=0;entryPerimeter=0;exitX=0.5;exitY=1;exitDx=0;exitDy=0;" parent="1" source="YZjVqz2BdAuiKITETF3J-31" target="YZjVqz2BdAuiKITETF3J-34" edge="1">
          <mxGeometry relative="1" as="geometry" />
        </mxCell>
        <mxCell id="YZjVqz2BdAuiKITETF3J-36" style="edgeStyle=none;shape=connector;rounded=0;orthogonalLoop=1;jettySize=auto;html=1;exitX=1;exitY=0.25;exitDx=0;exitDy=0;labelBackgroundColor=default;strokeColor=default;align=center;verticalAlign=middle;fontFamily=Helvetica;fontSize=11;fontColor=default;endArrow=none;endFill=0;" parent="1" source="YZjVqz2BdAuiKITETF3J-31" target="YZjVqz2BdAuiKITETF3J-31" edge="1">
          <mxGeometry relative="1" as="geometry" />
        </mxCell>
        <mxCell id="YZjVqz2BdAuiKITETF3J-42" style="edgeStyle=none;shape=link;rounded=0;orthogonalLoop=1;jettySize=auto;html=1;labelBackgroundColor=default;strokeColor=default;align=center;verticalAlign=middle;fontFamily=Helvetica;fontSize=11;fontColor=default;endArrow=none;endFill=0;entryX=1;entryY=0.5;entryDx=0;entryDy=0;" parent="1" source="YZjVqz2BdAuiKITETF3J-40" target="YZjVqz2BdAuiKITETF3J-31" edge="1">
          <mxGeometry relative="1" as="geometry">
            <mxPoint x="-480" y="660" as="targetPoint" />
          </mxGeometry>
        </mxCell>
        <mxCell id="YZjVqz2BdAuiKITETF3J-47" value="1" style="edgeLabel;html=1;align=center;verticalAlign=middle;resizable=0;points=[];fontSize=11;fontFamily=Helvetica;fontColor=default;" parent="YZjVqz2BdAuiKITETF3J-42" vertex="1" connectable="0">
          <mxGeometry x="0.2802" y="3" relative="1" as="geometry">
            <mxPoint x="3" y="9" as="offset" />
          </mxGeometry>
        </mxCell>
        <mxCell id="YZjVqz2BdAuiKITETF3J-40" value="has" style="rhombus;whiteSpace=wrap;html=1;rounded=0;strokeWidth=2;fillColor=#dae8fc;strokeColor=#6c8ebf;" parent="1" vertex="1">
          <mxGeometry x="-400" y="617.4200000000001" width="80" height="80" as="geometry" />
        </mxCell>
        <mxCell id="YZjVqz2BdAuiKITETF3J-41" style="edgeStyle=none;shape=connector;rounded=0;orthogonalLoop=1;jettySize=auto;html=1;entryX=0.5;entryY=0;entryDx=0;entryDy=0;labelBackgroundColor=default;strokeColor=default;align=center;verticalAlign=middle;fontFamily=Helvetica;fontSize=11;fontColor=default;endArrow=none;endFill=0;exitX=0.5;exitY=1;exitDx=0;exitDy=0;" parent="1" source="rVrRJaUetaWtjt3BiSwA-2" target="YZjVqz2BdAuiKITETF3J-40" edge="1">
          <mxGeometry relative="1" as="geometry" />
        </mxCell>
        <mxCell id="8Ajd_Qfqa1L-vim18DAo-35" value="M" style="edgeLabel;html=1;align=center;verticalAlign=middle;resizable=0;points=[];fontSize=11;fontFamily=Helvetica;fontColor=default;" vertex="1" connectable="0" parent="YZjVqz2BdAuiKITETF3J-41">
          <mxGeometry x="0.0949" relative="1" as="geometry">
            <mxPoint as="offset" />
          </mxGeometry>
        </mxCell>
        <mxCell id="YZjVqz2BdAuiKITETF3J-52" style="edgeStyle=none;shape=link;rounded=0;orthogonalLoop=1;jettySize=auto;html=1;entryX=0.5;entryY=1;entryDx=0;entryDy=0;labelBackgroundColor=default;strokeColor=default;align=center;verticalAlign=middle;fontFamily=Helvetica;fontSize=11;fontColor=default;endArrow=none;endFill=0;exitX=1;exitY=0.5;exitDx=0;exitDy=0;" parent="1" source="YZjVqz2BdAuiKITETF3J-50" target="rVrRJaUetaWtjt3BiSwA-19" edge="1">
          <mxGeometry relative="1" as="geometry" />
        </mxCell>
        <mxCell id="8Ajd_Qfqa1L-vim18DAo-26" value="1" style="edgeLabel;html=1;align=center;verticalAlign=middle;resizable=0;points=[];fontSize=11;fontFamily=Helvetica;fontColor=default;" vertex="1" connectable="0" parent="YZjVqz2BdAuiKITETF3J-52">
          <mxGeometry x="0.1539" y="1" relative="1" as="geometry">
            <mxPoint as="offset" />
          </mxGeometry>
        </mxCell>
        <mxCell id="YZjVqz2BdAuiKITETF3J-50" value="has" style="rhombus;whiteSpace=wrap;html=1;rounded=0;strokeWidth=2;fillColor=#dae8fc;strokeColor=#6c8ebf;" parent="1" vertex="1">
          <mxGeometry x="-500" y="293.4200000000001" width="80" height="80" as="geometry" />
        </mxCell>
        <mxCell id="YZjVqz2BdAuiKITETF3J-60" value="cart-id" style="ellipse;whiteSpace=wrap;html=1;align=center;fontStyle=4;rounded=0;strokeColor=default;verticalAlign=middle;fontFamily=Helvetica;fontSize=12;fontColor=default;fillColor=default;" parent="1" vertex="1">
          <mxGeometry x="-560" y="33.42" width="100" height="40" as="geometry" />
        </mxCell>
        <mxCell id="YZjVqz2BdAuiKITETF3J-61" style="edgeStyle=none;shape=connector;rounded=0;orthogonalLoop=1;jettySize=auto;html=1;entryX=1;entryY=0.5;entryDx=0;entryDy=0;labelBackgroundColor=default;strokeColor=default;align=center;verticalAlign=middle;fontFamily=Helvetica;fontSize=11;fontColor=default;endArrow=none;endFill=0;exitX=0.5;exitY=0;exitDx=0;exitDy=0;" parent="1" source="rVrRJaUetaWtjt3BiSwA-19" target="YZjVqz2BdAuiKITETF3J-60" edge="1">
          <mxGeometry relative="1" as="geometry">
            <mxPoint x="-380" y="80" as="sourcePoint" />
          </mxGeometry>
        </mxCell>
        <mxCell id="YZjVqz2BdAuiKITETF3J-73" value="&lt;div style=&quot;&quot;&gt;&lt;span style=&quot;background-color: initial;&quot;&gt;Customer (&lt;/span&gt;&lt;u style=&quot;background-color: initial;&quot;&gt;customer_id&lt;/u&gt;&lt;span style=&quot;background-color: initial;&quot;&gt;)&lt;/span&gt;&lt;/div&gt;Cart (&lt;u&gt;cart_id&lt;/u&gt;)&lt;br&gt;Product (&lt;u&gt;product_id&lt;/u&gt;)&lt;br&gt;&lt;br&gt;Cart_Item (&lt;u&gt;cart_id, product_id&lt;/u&gt;, quantity)&lt;br&gt;Customer_Cart (&lt;u&gt;customer_id, cart_id&lt;/u&gt;)" style="text;html=1;strokeColor=none;fillColor=none;align=left;verticalAlign=middle;whiteSpace=wrap;rounded=0;fontSize=11;fontFamily=Helvetica;fontColor=default;horizontal=1;labelPosition=center;verticalLabelPosition=middle;" parent="1" vertex="1">
          <mxGeometry x="310" y="1434" width="210" height="95" as="geometry" />
        </mxCell>
        <mxCell id="YZjVqz2BdAuiKITETF3J-80" style="edgeStyle=none;shape=link;rounded=0;orthogonalLoop=1;jettySize=auto;html=1;labelBackgroundColor=default;strokeColor=default;align=center;verticalAlign=middle;fontFamily=Helvetica;fontSize=11;fontColor=default;endArrow=none;endFill=0;exitX=1;exitY=0.5;exitDx=0;exitDy=0;" parent="1" source="YZjVqz2BdAuiKITETF3J-78" target="rVrRJaUetaWtjt3BiSwA-18" edge="1">
          <mxGeometry relative="1" as="geometry">
            <mxPoint x="-180" y="833.42" as="sourcePoint" />
          </mxGeometry>
        </mxCell>
        <mxCell id="YZjVqz2BdAuiKITETF3J-81" value="M" style="edgeLabel;html=1;align=center;verticalAlign=middle;resizable=0;points=[];fontSize=11;fontFamily=Helvetica;fontColor=default;" parent="YZjVqz2BdAuiKITETF3J-80" vertex="1" connectable="0">
          <mxGeometry x="0.7035" y="-1" relative="1" as="geometry">
            <mxPoint as="offset" />
          </mxGeometry>
        </mxCell>
        <mxCell id="YZjVqz2BdAuiKITETF3J-78" value="has" style="rhombus;whiteSpace=wrap;html=1;rounded=0;strokeWidth=2;fillColor=#dae8fc;strokeColor=#6c8ebf;" parent="1" vertex="1">
          <mxGeometry x="-350" y="73.41999999999997" width="80" height="80" as="geometry" />
        </mxCell>
        <mxCell id="YZjVqz2BdAuiKITETF3J-79" style="edgeStyle=none;shape=connector;rounded=0;orthogonalLoop=1;jettySize=auto;html=1;entryX=0;entryY=0.5;entryDx=0;entryDy=0;labelBackgroundColor=default;strokeColor=default;align=center;verticalAlign=middle;fontFamily=Helvetica;fontSize=11;fontColor=default;endArrow=none;endFill=0;" parent="1" source="rVrRJaUetaWtjt3BiSwA-19" target="YZjVqz2BdAuiKITETF3J-78" edge="1">
          <mxGeometry relative="1" as="geometry" />
        </mxCell>
        <mxCell id="YZjVqz2BdAuiKITETF3J-82" value="1" style="edgeLabel;html=1;align=center;verticalAlign=middle;resizable=0;points=[];fontSize=11;fontFamily=Helvetica;fontColor=default;" parent="YZjVqz2BdAuiKITETF3J-79" vertex="1" connectable="0">
          <mxGeometry x="-0.6351" y="-1" relative="1" as="geometry">
            <mxPoint as="offset" />
          </mxGeometry>
        </mxCell>
        <mxCell id="YZjVqz2BdAuiKITETF3J-97" style="edgeStyle=none;shape=link;rounded=0;orthogonalLoop=1;jettySize=auto;html=1;entryX=0.5;entryY=1;entryDx=0;entryDy=0;labelBackgroundColor=default;strokeColor=default;align=center;verticalAlign=middle;fontFamily=Helvetica;fontSize=11;fontColor=default;endArrow=none;endFill=0;exitX=0.5;exitY=0;exitDx=0;exitDy=0;" parent="1" source="YZjVqz2BdAuiKITETF3J-95" target="rVrRJaUetaWtjt3BiSwA-18" edge="1">
          <mxGeometry relative="1" as="geometry">
            <mxPoint x="-300" y="1043.42" as="targetPoint" />
            <mxPoint x="-70" y="813.42" as="sourcePoint" />
          </mxGeometry>
        </mxCell>
        <mxCell id="DSKI7EyAeoJrv0FDoOlX-75" value="M" style="edgeLabel;html=1;align=center;verticalAlign=middle;resizable=0;points=[];fontSize=11;fontFamily=Helvetica;fontColor=default;" parent="YZjVqz2BdAuiKITETF3J-97" vertex="1" connectable="0">
          <mxGeometry x="0.5444" y="1" relative="1" as="geometry">
            <mxPoint as="offset" />
          </mxGeometry>
        </mxCell>
        <mxCell id="YZjVqz2BdAuiKITETF3J-95" value="has" style="rhombus;whiteSpace=wrap;html=1;rounded=0;strokeWidth=2;fillColor=#dae8fc;strokeColor=#6c8ebf;" parent="1" vertex="1">
          <mxGeometry x="-200" y="184.00000000000003" width="80" height="80" as="geometry" />
        </mxCell>
        <mxCell id="YZjVqz2BdAuiKITETF3J-138" value="&lt;u&gt;emp-id&lt;/u&gt;" style="ellipse;whiteSpace=wrap;html=1;align=center;rounded=0;strokeColor=default;verticalAlign=middle;fontFamily=Helvetica;fontSize=12;fontColor=default;fillColor=default;" parent="1" vertex="1">
          <mxGeometry x="-732" y="1597" width="100" height="40" as="geometry" />
        </mxCell>
        <mxCell id="YZjVqz2BdAuiKITETF3J-140" value="email" style="ellipse;whiteSpace=wrap;html=1;align=center;rounded=0;strokeColor=default;verticalAlign=middle;fontFamily=Helvetica;fontSize=12;fontColor=default;fillColor=default;" parent="1" vertex="1">
          <mxGeometry x="-632" y="1489" width="100" height="40" as="geometry" />
        </mxCell>
        <mxCell id="YZjVqz2BdAuiKITETF3J-142" value="password" style="ellipse;whiteSpace=wrap;html=1;align=center;rounded=0;strokeColor=default;verticalAlign=middle;fontFamily=Helvetica;fontSize=12;fontColor=default;fillColor=default;" parent="1" vertex="1">
          <mxGeometry x="-500" y="1540" width="100" height="40" as="geometry" />
        </mxCell>
        <mxCell id="YZjVqz2BdAuiKITETF3J-144" value="role" style="ellipse;whiteSpace=wrap;html=1;align=center;rounded=0;strokeColor=default;verticalAlign=middle;fontFamily=Helvetica;fontSize=12;fontColor=default;fillColor=default;" parent="1" vertex="1">
          <mxGeometry x="-496" y="1499" width="76" height="30" as="geometry" />
        </mxCell>
        <mxCell id="YZjVqz2BdAuiKITETF3J-145" style="edgeStyle=none;shape=connector;rounded=0;orthogonalLoop=1;jettySize=auto;html=1;entryX=0;entryY=0.5;entryDx=0;entryDy=0;labelBackgroundColor=default;strokeColor=default;align=center;verticalAlign=middle;fontFamily=Helvetica;fontSize=11;fontColor=default;endArrow=none;endFill=0;exitX=0.5;exitY=0;exitDx=0;exitDy=0;" parent="1" source="rVrRJaUetaWtjt3BiSwA-1" target="YZjVqz2BdAuiKITETF3J-144" edge="1">
          <mxGeometry relative="1" as="geometry" />
        </mxCell>
        <mxCell id="YZjVqz2BdAuiKITETF3J-146" value="phone-number" style="ellipse;whiteSpace=wrap;html=1;align=center;rounded=0;strokeColor=default;verticalAlign=middle;fontFamily=Helvetica;fontSize=12;fontColor=default;fillColor=default;" parent="1" vertex="1">
          <mxGeometry x="-557" y="1449" width="100" height="40" as="geometry" />
        </mxCell>
        <mxCell id="YZjVqz2BdAuiKITETF3J-147" style="edgeStyle=none;shape=connector;rounded=0;orthogonalLoop=1;jettySize=auto;html=1;entryX=0.386;entryY=0.979;entryDx=0;entryDy=0;entryPerimeter=0;labelBackgroundColor=default;strokeColor=default;align=center;verticalAlign=middle;fontFamily=Helvetica;fontSize=11;fontColor=default;endArrow=none;endFill=0;exitX=0.5;exitY=0;exitDx=0;exitDy=0;" parent="1" source="rVrRJaUetaWtjt3BiSwA-1" target="YZjVqz2BdAuiKITETF3J-146" edge="1">
          <mxGeometry relative="1" as="geometry" />
        </mxCell>
        <mxCell id="DSKI7EyAeoJrv0FDoOlX-27" value="M" style="rounded=0;orthogonalLoop=1;jettySize=auto;html=1;exitX=1;exitY=0.5;exitDx=0;exitDy=0;endArrow=none;endFill=0;shape=link;" parent="1" source="DSKI7EyAeoJrv0FDoOlX-1" target="DSKI7EyAeoJrv0FDoOlX-18" edge="1">
          <mxGeometry relative="1" as="geometry" />
        </mxCell>
        <mxCell id="DSKI7EyAeoJrv0FDoOlX-120" style="edgeStyle=none;shape=connector;rounded=0;orthogonalLoop=1;jettySize=auto;html=1;exitX=0.5;exitY=0;exitDx=0;exitDy=0;entryX=0;entryY=0.5;entryDx=0;entryDy=0;labelBackgroundColor=default;strokeColor=default;align=center;verticalAlign=middle;fontFamily=Helvetica;fontSize=11;fontColor=default;endArrow=none;endFill=0;" parent="1" source="DSKI7EyAeoJrv0FDoOlX-1" target="DSKI7EyAeoJrv0FDoOlX-119" edge="1">
          <mxGeometry relative="1" as="geometry" />
        </mxCell>
        <mxCell id="DSKI7EyAeoJrv0FDoOlX-1" value="customer_shipping_billing" style="rounded=0;whiteSpace=wrap;html=1;strokeWidth=2;fillColor=#f8cecc;strokeColor=#b85450;" parent="1" vertex="1">
          <mxGeometry x="-1066" y="315.91999999999996" width="150" height="40" as="geometry" />
        </mxCell>
        <mxCell id="DSKI7EyAeoJrv0FDoOlX-2" value="postal-code" style="ellipse;whiteSpace=wrap;html=1;align=center;rounded=0;strokeColor=default;verticalAlign=middle;fontFamily=Helvetica;fontSize=12;fontColor=default;fillColor=default;" parent="1" vertex="1">
          <mxGeometry x="-1122" y="90" width="100" height="40" as="geometry" />
        </mxCell>
        <mxCell id="DSKI7EyAeoJrv0FDoOlX-3" value="city" style="ellipse;whiteSpace=wrap;html=1;align=center;rounded=0;strokeColor=default;verticalAlign=middle;fontFamily=Helvetica;fontSize=12;fontColor=default;fillColor=default;" parent="1" vertex="1">
          <mxGeometry x="-1166" y="131.50000000000003" width="100" height="40" as="geometry" />
        </mxCell>
        <mxCell id="DSKI7EyAeoJrv0FDoOlX-6" value="" style="endArrow=none;html=1;rounded=0;entryX=0.542;entryY=0.985;entryDx=0;entryDy=0;entryPerimeter=0;exitX=0.5;exitY=0;exitDx=0;exitDy=0;" parent="1" source="DSKI7EyAeoJrv0FDoOlX-1" target="DSKI7EyAeoJrv0FDoOlX-2" edge="1">
          <mxGeometry width="50" height="50" relative="1" as="geometry">
            <mxPoint x="-850" y="142.5" as="sourcePoint" />
            <mxPoint x="-500" y="195.92000000000002" as="targetPoint" />
          </mxGeometry>
        </mxCell>
        <mxCell id="DSKI7EyAeoJrv0FDoOlX-7" value="" style="endArrow=none;html=1;rounded=0;entryX=0.973;entryY=0.623;entryDx=0;entryDy=0;entryPerimeter=0;exitX=0.5;exitY=0;exitDx=0;exitDy=0;" parent="1" source="DSKI7EyAeoJrv0FDoOlX-1" target="DSKI7EyAeoJrv0FDoOlX-3" edge="1">
          <mxGeometry width="50" height="50" relative="1" as="geometry">
            <mxPoint x="-860" y="340" as="sourcePoint" />
            <mxPoint x="-740" y="135.92000000000002" as="targetPoint" />
          </mxGeometry>
        </mxCell>
        <mxCell id="DSKI7EyAeoJrv0FDoOlX-8" value="" style="endArrow=none;html=1;rounded=0;exitX=0.5;exitY=0;exitDx=0;exitDy=0;entryX=1;entryY=0.5;entryDx=0;entryDy=0;" parent="1" target="f6Bqa9t4RdQO3D29W2uO-35" edge="1" source="DSKI7EyAeoJrv0FDoOlX-1">
          <mxGeometry width="50" height="50" relative="1" as="geometry">
            <mxPoint x="-940" y="162.5" as="sourcePoint" />
            <mxPoint x="-956.7461103560311" y="110.10259928205636" as="targetPoint" />
          </mxGeometry>
        </mxCell>
        <mxCell id="DSKI7EyAeoJrv0FDoOlX-9" value="" style="endArrow=none;html=1;rounded=0;exitX=0.5;exitY=0;exitDx=0;exitDy=0;entryX=1;entryY=0.5;entryDx=0;entryDy=0;" parent="1" source="DSKI7EyAeoJrv0FDoOlX-1" target="f6Bqa9t4RdQO3D29W2uO-36" edge="1">
          <mxGeometry width="50" height="50" relative="1" as="geometry">
            <mxPoint x="-855" y="155.92000000000002" as="sourcePoint" />
            <mxPoint x="-1050" y="166" as="targetPoint" />
          </mxGeometry>
        </mxCell>
        <mxCell id="DSKI7EyAeoJrv0FDoOlX-10" value="phone-number" style="ellipse;whiteSpace=wrap;html=1;align=center;rounded=0;strokeColor=default;verticalAlign=middle;fontFamily=Helvetica;fontSize=12;fontColor=default;fillColor=default;" parent="1" vertex="1">
          <mxGeometry x="-1162" y="275.92" width="100" height="40" as="geometry" />
        </mxCell>
        <mxCell id="DSKI7EyAeoJrv0FDoOlX-14" value="" style="endArrow=none;html=1;rounded=0;entryX=0.5;entryY=0;entryDx=0;entryDy=0;exitX=0.964;exitY=0.329;exitDx=0;exitDy=0;exitPerimeter=0;" parent="1" source="DSKI7EyAeoJrv0FDoOlX-10" target="DSKI7EyAeoJrv0FDoOlX-1" edge="1">
          <mxGeometry width="50" height="50" relative="1" as="geometry">
            <mxPoint x="-950.0000000000002" y="245.92000000000002" as="sourcePoint" />
            <mxPoint x="-880" y="195.92000000000002" as="targetPoint" />
          </mxGeometry>
        </mxCell>
        <mxCell id="DSKI7EyAeoJrv0FDoOlX-16" value="location-name" style="ellipse;whiteSpace=wrap;html=1;align=center;rounded=0;strokeColor=default;verticalAlign=middle;fontFamily=Helvetica;fontSize=12;fontColor=default;fillColor=default;" parent="1" vertex="1">
          <mxGeometry x="-900" y="134" width="100" height="40" as="geometry" />
        </mxCell>
        <mxCell id="DSKI7EyAeoJrv0FDoOlX-17" value="" style="endArrow=none;html=1;rounded=0;entryX=0.5;entryY=1;entryDx=0;entryDy=0;exitX=0.5;exitY=0;exitDx=0;exitDy=0;" parent="1" source="DSKI7EyAeoJrv0FDoOlX-1" target="DSKI7EyAeoJrv0FDoOlX-16" edge="1">
          <mxGeometry width="50" height="50" relative="1" as="geometry">
            <mxPoint x="-850" y="340" as="sourcePoint" />
            <mxPoint x="-805" y="104.92000000000002" as="targetPoint" />
          </mxGeometry>
        </mxCell>
        <mxCell id="DSKI7EyAeoJrv0FDoOlX-18" value="has" style="rhombus;whiteSpace=wrap;html=1;rounded=0;strokeWidth=2;fillColor=#dae8fc;strokeColor=#6c8ebf;" parent="1" vertex="1">
          <mxGeometry x="-845" y="293.42" width="80" height="80" as="geometry" />
        </mxCell>
        <mxCell id="DSKI7EyAeoJrv0FDoOlX-28" value="1" style="edgeStyle=none;shape=connector;rounded=0;orthogonalLoop=1;jettySize=auto;html=1;exitX=1;exitY=0.5;exitDx=0;exitDy=0;labelBackgroundColor=default;strokeColor=default;align=center;verticalAlign=middle;fontFamily=Helvetica;fontSize=11;fontColor=default;endArrow=none;endFill=0;entryX=0;entryY=0.5;entryDx=0;entryDy=0;" parent="1" source="DSKI7EyAeoJrv0FDoOlX-18" target="3DuY-Ulm5TOmBUNmaxVy-4" edge="1">
          <mxGeometry relative="1" as="geometry">
            <mxPoint x="-580" y="254" as="targetPoint" />
          </mxGeometry>
        </mxCell>
        <mxCell id="DSKI7EyAeoJrv0FDoOlX-43" value="Discount" style="rounded=0;whiteSpace=wrap;html=1;strokeWidth=2;fillColor=#f8cecc;strokeColor=#b85450;" parent="1" vertex="1">
          <mxGeometry x="-520" y="513.42" width="100" height="40" as="geometry" />
        </mxCell>
        <mxCell id="DSKI7EyAeoJrv0FDoOlX-44" value="&lt;u&gt;discount-id&lt;/u&gt;" style="ellipse;whiteSpace=wrap;html=1;align=center;rounded=0;strokeColor=default;verticalAlign=middle;fontFamily=Helvetica;fontSize=12;fontColor=default;fillColor=default;" parent="1" vertex="1">
          <mxGeometry x="-560" y="393.41999999999996" width="100" height="40" as="geometry" />
        </mxCell>
        <mxCell id="DSKI7EyAeoJrv0FDoOlX-48" value="" style="endArrow=none;html=1;rounded=0;labelBackgroundColor=default;strokeColor=default;align=center;verticalAlign=middle;fontFamily=Helvetica;fontSize=11;fontColor=default;shape=connector;entryX=0.5;entryY=1;entryDx=0;entryDy=0;exitX=0.5;exitY=0;exitDx=0;exitDy=0;" parent="1" source="DSKI7EyAeoJrv0FDoOlX-43" target="DSKI7EyAeoJrv0FDoOlX-44" edge="1">
          <mxGeometry width="50" height="50" relative="1" as="geometry">
            <mxPoint x="-500" y="726.42" as="sourcePoint" />
            <mxPoint x="-450" y="676.42" as="targetPoint" />
          </mxGeometry>
        </mxCell>
        <mxCell id="DSKI7EyAeoJrv0FDoOlX-49" value="" style="endArrow=none;html=1;rounded=0;labelBackgroundColor=default;strokeColor=default;align=center;verticalAlign=middle;fontFamily=Helvetica;fontSize=11;fontColor=default;shape=connector;exitX=0;exitY=0.5;exitDx=0;exitDy=0;entryX=0.5;entryY=0;entryDx=0;entryDy=0;" parent="1" source="DSKI7EyAeoJrv0FDoOlX-43" target="DSKI7EyAeoJrv0FDoOlX-59" edge="1">
          <mxGeometry width="50" height="50" relative="1" as="geometry">
            <mxPoint x="-370" y="816.42" as="sourcePoint" />
            <mxPoint x="-520" y="590" as="targetPoint" />
          </mxGeometry>
        </mxCell>
        <mxCell id="DSKI7EyAeoJrv0FDoOlX-50" style="edgeStyle=none;shape=connector;rounded=0;orthogonalLoop=1;jettySize=auto;html=1;exitX=0.5;exitY=1;exitDx=0;exitDy=0;labelBackgroundColor=default;strokeColor=default;align=center;verticalAlign=middle;fontFamily=Helvetica;fontSize=11;fontColor=default;endArrow=none;endFill=0;" parent="1" source="DSKI7EyAeoJrv0FDoOlX-44" target="DSKI7EyAeoJrv0FDoOlX-44" edge="1">
          <mxGeometry relative="1" as="geometry" />
        </mxCell>
        <mxCell id="DSKI7EyAeoJrv0FDoOlX-51" value="" style="endArrow=none;html=1;rounded=0;labelBackgroundColor=default;strokeColor=default;align=center;verticalAlign=middle;fontFamily=Helvetica;fontSize=11;fontColor=default;shape=connector;entryX=0.81;entryY=0.165;entryDx=0;entryDy=0;exitX=0;exitY=0.5;exitDx=0;exitDy=0;entryPerimeter=0;" parent="1" source="DSKI7EyAeoJrv0FDoOlX-43" target="DSKI7EyAeoJrv0FDoOlX-60" edge="1">
          <mxGeometry width="50" height="50" relative="1" as="geometry">
            <mxPoint x="-370" y="806.42" as="sourcePoint" />
            <mxPoint x="-394.9000000000001" y="735.62" as="targetPoint" />
          </mxGeometry>
        </mxCell>
        <mxCell id="DSKI7EyAeoJrv0FDoOlX-52" value="" style="endArrow=none;html=1;rounded=0;labelBackgroundColor=default;strokeColor=default;align=center;verticalAlign=middle;fontFamily=Helvetica;fontSize=11;fontColor=default;shape=connector;entryX=1;entryY=0;entryDx=0;entryDy=0;exitX=0.5;exitY=0;exitDx=0;exitDy=0;" parent="1" source="DSKI7EyAeoJrv0FDoOlX-43" target="DSKI7EyAeoJrv0FDoOlX-61" edge="1">
          <mxGeometry width="50" height="50" relative="1" as="geometry">
            <mxPoint x="-395" y="786.42" as="sourcePoint" />
            <mxPoint x="-480" y="726.42" as="targetPoint" />
          </mxGeometry>
        </mxCell>
        <mxCell id="DSKI7EyAeoJrv0FDoOlX-53" value="image-url" style="ellipse;whiteSpace=wrap;html=1;align=center;rounded=0;strokeColor=default;verticalAlign=middle;fontFamily=Helvetica;fontSize=12;fontColor=default;fillColor=default;" parent="1" vertex="1">
          <mxGeometry x="-450" y="413.42" width="100" height="40" as="geometry" />
        </mxCell>
        <mxCell id="DSKI7EyAeoJrv0FDoOlX-58" value="" style="endArrow=none;html=1;rounded=0;labelBackgroundColor=default;strokeColor=default;align=center;verticalAlign=middle;fontFamily=Helvetica;fontSize=11;fontColor=default;shape=connector;exitX=0.95;exitY=0.275;exitDx=0;exitDy=0;entryX=0;entryY=0.5;entryDx=0;entryDy=0;exitPerimeter=0;" parent="1" source="DSKI7EyAeoJrv0FDoOlX-53" target="rVrRJaUetaWtjt3BiSwA-2" edge="1">
          <mxGeometry width="50" height="50" relative="1" as="geometry">
            <mxPoint x="10" y="463.42" as="sourcePoint" />
            <mxPoint x="-20" y="468.42" as="targetPoint" />
          </mxGeometry>
        </mxCell>
        <mxCell id="DSKI7EyAeoJrv0FDoOlX-59" value="discount-start" style="ellipse;whiteSpace=wrap;html=1;align=center;rounded=0;strokeColor=default;verticalAlign=middle;fontFamily=Helvetica;fontSize=12;fontColor=default;fillColor=default;" parent="1" vertex="1">
          <mxGeometry x="-607" y="577.42" width="100" height="40" as="geometry" />
        </mxCell>
        <mxCell id="DSKI7EyAeoJrv0FDoOlX-60" value="discount-end" style="ellipse;whiteSpace=wrap;html=1;align=center;rounded=0;strokeColor=default;verticalAlign=middle;fontFamily=Helvetica;fontSize=12;fontColor=default;fillColor=default;" parent="1" vertex="1">
          <mxGeometry x="-640" y="528.42" width="100" height="40" as="geometry" />
        </mxCell>
        <mxCell id="DSKI7EyAeoJrv0FDoOlX-61" value="discount-rate" style="ellipse;whiteSpace=wrap;html=1;align=center;rounded=0;strokeColor=default;verticalAlign=middle;fontFamily=Helvetica;fontSize=12;fontColor=default;fillColor=default;" parent="1" vertex="1">
          <mxGeometry x="-634" y="473.42" width="100" height="40" as="geometry" />
        </mxCell>
        <mxCell id="DSKI7EyAeoJrv0FDoOlX-62" value="description" style="ellipse;whiteSpace=wrap;html=1;align=center;rounded=0;strokeColor=default;verticalAlign=middle;fontFamily=Helvetica;fontSize=12;fontColor=default;fillColor=default;" parent="1" vertex="1">
          <mxGeometry x="-638" y="424.99999999999994" width="100" height="40" as="geometry" />
        </mxCell>
        <mxCell id="DSKI7EyAeoJrv0FDoOlX-63" value="" style="endArrow=none;html=1;rounded=0;labelBackgroundColor=default;strokeColor=default;align=center;verticalAlign=middle;fontFamily=Helvetica;fontSize=11;fontColor=default;shape=connector;entryX=1;entryY=1;entryDx=0;entryDy=0;exitX=0.5;exitY=0;exitDx=0;exitDy=0;" parent="1" source="DSKI7EyAeoJrv0FDoOlX-43" target="DSKI7EyAeoJrv0FDoOlX-62" edge="1">
          <mxGeometry width="50" height="50" relative="1" as="geometry">
            <mxPoint x="-500" y="996.42" as="sourcePoint" />
            <mxPoint x="-450" y="946.42" as="targetPoint" />
          </mxGeometry>
        </mxCell>
        <mxCell id="DSKI7EyAeoJrv0FDoOlX-67" value="1" style="edgeStyle=none;shape=connector;rounded=0;orthogonalLoop=1;jettySize=auto;html=1;exitX=1;exitY=0.5;exitDx=0;exitDy=0;entryX=0;entryY=0.5;entryDx=0;entryDy=0;labelBackgroundColor=default;strokeColor=default;align=center;verticalAlign=middle;fontFamily=Helvetica;fontSize=11;fontColor=default;endArrow=none;endFill=0;" parent="1" source="DSKI7EyAeoJrv0FDoOlX-65" target="rVrRJaUetaWtjt3BiSwA-2" edge="1">
          <mxGeometry relative="1" as="geometry" />
        </mxCell>
        <mxCell id="DSKI7EyAeoJrv0FDoOlX-65" value="has" style="rhombus;whiteSpace=wrap;html=1;rounded=0;strokeWidth=2;fillColor=#dae8fc;strokeColor=#6c8ebf;" parent="1" vertex="1">
          <mxGeometry x="-380" y="493.4200000000001" width="80" height="80" as="geometry" />
        </mxCell>
        <mxCell id="DSKI7EyAeoJrv0FDoOlX-66" value="M" style="edgeStyle=none;shape=link;rounded=0;orthogonalLoop=1;jettySize=auto;html=1;exitX=0;exitY=0.5;exitDx=0;exitDy=0;entryX=1;entryY=0.5;entryDx=0;entryDy=0;labelBackgroundColor=default;strokeColor=default;align=center;verticalAlign=middle;fontFamily=Helvetica;fontSize=11;fontColor=default;endArrow=none;endFill=0;" parent="1" source="DSKI7EyAeoJrv0FDoOlX-65" target="DSKI7EyAeoJrv0FDoOlX-43" edge="1">
          <mxGeometry relative="1" as="geometry" />
        </mxCell>
        <mxCell id="DSKI7EyAeoJrv0FDoOlX-69" style="edgeStyle=none;shape=connector;rounded=0;orthogonalLoop=1;jettySize=auto;html=1;exitX=0.5;exitY=0;exitDx=0;exitDy=0;entryX=0.5;entryY=0;entryDx=0;entryDy=0;labelBackgroundColor=default;strokeColor=default;align=center;verticalAlign=middle;fontFamily=Helvetica;fontSize=11;fontColor=default;endArrow=none;endFill=0;" parent="1" source="DSKI7EyAeoJrv0FDoOlX-68" target="rVrRJaUetaWtjt3BiSwA-2" edge="1">
          <mxGeometry relative="1" as="geometry" />
        </mxCell>
        <mxCell id="DSKI7EyAeoJrv0FDoOlX-68" value="qtn_in_stock" style="ellipse;whiteSpace=wrap;html=1;align=center;rounded=0;strokeColor=default;verticalAlign=middle;fontFamily=Helvetica;fontSize=12;fontColor=default;fillColor=default;" parent="1" vertex="1">
          <mxGeometry x="-350" y="263.41999999999996" width="100" height="40" as="geometry" />
        </mxCell>
        <mxCell id="DSKI7EyAeoJrv0FDoOlX-70" value="stock-keeping-unit" style="ellipse;whiteSpace=wrap;html=1;align=center;rounded=0;strokeColor=default;verticalAlign=middle;fontFamily=Helvetica;fontSize=12;fontColor=default;fillColor=default;" parent="1" vertex="1">
          <mxGeometry x="-306" y="219.99999999999997" width="100" height="40" as="geometry" />
        </mxCell>
        <mxCell id="DSKI7EyAeoJrv0FDoOlX-71" style="edgeStyle=none;shape=connector;rounded=0;orthogonalLoop=1;jettySize=auto;html=1;exitX=0.5;exitY=0;exitDx=0;exitDy=0;entryX=1;entryY=1;entryDx=0;entryDy=0;labelBackgroundColor=default;strokeColor=default;align=center;verticalAlign=middle;fontFamily=Helvetica;fontSize=11;fontColor=default;endArrow=none;endFill=0;" parent="1" source="rVrRJaUetaWtjt3BiSwA-2" target="DSKI7EyAeoJrv0FDoOlX-70" edge="1">
          <mxGeometry relative="1" as="geometry" />
        </mxCell>
        <mxCell id="DSKI7EyAeoJrv0FDoOlX-73" value="quantity" style="ellipse;whiteSpace=wrap;html=1;align=center;rounded=0;strokeColor=default;verticalAlign=middle;fontFamily=Helvetica;fontSize=12;fontColor=default;fillColor=default;" parent="1" vertex="1">
          <mxGeometry x="-210" y="6.999999999999943" width="100" height="40" as="geometry" />
        </mxCell>
        <mxCell id="DSKI7EyAeoJrv0FDoOlX-74" style="edgeStyle=none;shape=connector;rounded=0;orthogonalLoop=1;jettySize=auto;html=1;exitX=0.5;exitY=0;exitDx=0;exitDy=0;entryX=0.5;entryY=1;entryDx=0;entryDy=0;labelBackgroundColor=default;strokeColor=default;align=center;verticalAlign=middle;fontFamily=Helvetica;fontSize=11;fontColor=default;endArrow=none;endFill=0;" parent="1" source="rVrRJaUetaWtjt3BiSwA-18" target="DSKI7EyAeoJrv0FDoOlX-73" edge="1">
          <mxGeometry relative="1" as="geometry">
            <mxPoint x="-230" y="1023.42" as="sourcePoint" />
            <mxPoint x="-255" y="987.42" as="targetPoint" />
          </mxGeometry>
        </mxCell>
        <mxCell id="DSKI7EyAeoJrv0FDoOlX-77" style="edgeStyle=none;shape=connector;rounded=0;orthogonalLoop=1;jettySize=auto;html=1;exitX=0;exitY=1;exitDx=0;exitDy=0;labelBackgroundColor=default;strokeColor=default;align=center;verticalAlign=middle;fontFamily=Helvetica;fontSize=11;fontColor=default;endArrow=none;endFill=0;" parent="1" edge="1">
          <mxGeometry relative="1" as="geometry">
            <mxPoint x="-200" y="813.42" as="sourcePoint" />
            <mxPoint x="-200" y="813.42" as="targetPoint" />
          </mxGeometry>
        </mxCell>
        <mxCell id="DSKI7EyAeoJrv0FDoOlX-106" value="1" style="edgeStyle=none;shape=link;rounded=0;orthogonalLoop=1;jettySize=auto;html=1;exitX=0.5;exitY=1;exitDx=0;exitDy=0;entryX=0.5;entryY=0;entryDx=0;entryDy=0;labelBackgroundColor=default;strokeColor=default;align=center;verticalAlign=middle;fontFamily=Helvetica;fontSize=11;fontColor=default;endArrow=none;endFill=0;" parent="1" target="DSKI7EyAeoJrv0FDoOlX-105" edge="1" source="DSKI7EyAeoJrv0FDoOlX-78">
          <mxGeometry relative="1" as="geometry">
            <mxPoint x="-912" y="1184.38" as="sourcePoint" />
          </mxGeometry>
        </mxCell>
        <mxCell id="8Ajd_Qfqa1L-vim18DAo-11" style="edgeStyle=none;shape=connector;rounded=0;orthogonalLoop=1;jettySize=auto;html=1;entryX=0.5;entryY=1;entryDx=0;entryDy=0;labelBackgroundColor=default;strokeColor=default;align=center;verticalAlign=middle;fontFamily=Helvetica;fontSize=11;fontColor=default;endArrow=none;endFill=0;exitX=0.5;exitY=0;exitDx=0;exitDy=0;" edge="1" parent="1" source="DSKI7EyAeoJrv0FDoOlX-78" target="8Ajd_Qfqa1L-vim18DAo-9">
          <mxGeometry relative="1" as="geometry" />
        </mxCell>
        <mxCell id="8Ajd_Qfqa1L-vim18DAo-17" value="m" style="edgeLabel;html=1;align=center;verticalAlign=middle;resizable=0;points=[];fontSize=11;fontFamily=Helvetica;fontColor=default;" vertex="1" connectable="0" parent="8Ajd_Qfqa1L-vim18DAo-11">
          <mxGeometry x="-0.1528" relative="1" as="geometry">
            <mxPoint as="offset" />
          </mxGeometry>
        </mxCell>
        <mxCell id="DSKI7EyAeoJrv0FDoOlX-78" value="Order" style="rounded=0;whiteSpace=wrap;html=1;strokeWidth=2;fillColor=#f8cecc;strokeColor=#b85450;" parent="1" vertex="1">
          <mxGeometry x="-1032" y="1120" width="100" height="40" as="geometry" />
        </mxCell>
        <mxCell id="DSKI7EyAeoJrv0FDoOlX-82" style="edgeStyle=none;shape=connector;rounded=0;orthogonalLoop=1;jettySize=auto;html=1;exitX=0.707;exitY=0.967;exitDx=0;exitDy=0;entryX=0.5;entryY=1;entryDx=0;entryDy=0;labelBackgroundColor=default;strokeColor=default;align=center;verticalAlign=middle;fontFamily=Helvetica;fontSize=11;fontColor=default;endArrow=none;endFill=0;exitPerimeter=0;" parent="1" source="DSKI7EyAeoJrv0FDoOlX-79" target="DSKI7EyAeoJrv0FDoOlX-78" edge="1">
          <mxGeometry relative="1" as="geometry" />
        </mxCell>
        <mxCell id="DSKI7EyAeoJrv0FDoOlX-79" value="&lt;u&gt;order-id&lt;/u&gt;" style="ellipse;whiteSpace=wrap;html=1;align=center;rounded=0;strokeColor=default;verticalAlign=middle;fontFamily=Helvetica;fontSize=12;fontColor=default;fillColor=default;" parent="1" vertex="1">
          <mxGeometry x="-887" y="1175" width="100" height="40" as="geometry" />
        </mxCell>
        <mxCell id="DSKI7EyAeoJrv0FDoOlX-83" style="edgeStyle=none;shape=connector;rounded=0;orthogonalLoop=1;jettySize=auto;html=1;exitX=0.652;exitY=1.004;exitDx=0;exitDy=0;entryX=0.5;entryY=1;entryDx=0;entryDy=0;labelBackgroundColor=default;strokeColor=default;align=center;verticalAlign=middle;fontFamily=Helvetica;fontSize=11;fontColor=default;endArrow=none;endFill=0;exitPerimeter=0;" parent="1" source="DSKI7EyAeoJrv0FDoOlX-80" target="DSKI7EyAeoJrv0FDoOlX-78" edge="1">
          <mxGeometry relative="1" as="geometry" />
        </mxCell>
        <mxCell id="DSKI7EyAeoJrv0FDoOlX-80" value="order-date" style="ellipse;whiteSpace=wrap;html=1;align=center;rounded=0;strokeColor=default;verticalAlign=middle;fontFamily=Helvetica;fontSize=12;fontColor=default;fillColor=default;" parent="1" vertex="1">
          <mxGeometry x="-865" y="1221" width="100" height="40" as="geometry" />
        </mxCell>
        <mxCell id="DSKI7EyAeoJrv0FDoOlX-84" style="edgeStyle=none;shape=connector;rounded=0;orthogonalLoop=1;jettySize=auto;html=1;exitX=0.715;exitY=0.101;exitDx=0;exitDy=0;labelBackgroundColor=default;strokeColor=default;align=center;verticalAlign=middle;fontFamily=Helvetica;fontSize=11;fontColor=default;endArrow=none;endFill=0;entryX=0.5;entryY=1;entryDx=0;entryDy=0;exitPerimeter=0;" parent="1" source="DSKI7EyAeoJrv0FDoOlX-81" target="DSKI7EyAeoJrv0FDoOlX-78" edge="1">
          <mxGeometry relative="1" as="geometry">
            <mxPoint x="-942" y="1173.42" as="targetPoint" />
          </mxGeometry>
        </mxCell>
        <mxCell id="DSKI7EyAeoJrv0FDoOlX-81" value="total" style="ellipse;whiteSpace=wrap;html=1;align=center;rounded=0;strokeColor=default;verticalAlign=middle;fontFamily=Helvetica;fontSize=12;fontColor=default;fillColor=default;" parent="1" vertex="1">
          <mxGeometry x="-1162" y="1221" width="100" height="40" as="geometry" />
        </mxCell>
        <mxCell id="DSKI7EyAeoJrv0FDoOlX-87" style="edgeStyle=none;shape=link;rounded=0;orthogonalLoop=1;jettySize=auto;html=1;exitX=0;exitY=0.5;exitDx=0;exitDy=0;labelBackgroundColor=default;strokeColor=default;align=center;verticalAlign=middle;fontFamily=Helvetica;fontSize=11;fontColor=default;endArrow=none;endFill=0;entryX=1;entryY=0.5;entryDx=0;entryDy=0;" parent="1" source="DSKI7EyAeoJrv0FDoOlX-85" target="DSKI7EyAeoJrv0FDoOlX-78" edge="1">
          <mxGeometry relative="1" as="geometry" />
        </mxCell>
        <mxCell id="f6Bqa9t4RdQO3D29W2uO-1" value="M" style="edgeLabel;html=1;align=center;verticalAlign=middle;resizable=0;points=[];" parent="DSKI7EyAeoJrv0FDoOlX-87" vertex="1" connectable="0">
          <mxGeometry x="0.1761" y="2" relative="1" as="geometry">
            <mxPoint as="offset" />
          </mxGeometry>
        </mxCell>
        <mxCell id="DSKI7EyAeoJrv0FDoOlX-85" value="has" style="rhombus;whiteSpace=wrap;html=1;rounded=0;strokeWidth=2;fillColor=#dae8fc;strokeColor=#6c8ebf;" parent="1" vertex="1">
          <mxGeometry x="-780" y="686.42" width="80" height="80" as="geometry" />
        </mxCell>
        <mxCell id="DSKI7EyAeoJrv0FDoOlX-95" value="M" style="edgeStyle=none;rounded=0;orthogonalLoop=1;jettySize=auto;html=1;labelBackgroundColor=default;strokeColor=default;align=center;verticalAlign=middle;fontFamily=Helvetica;fontSize=11;fontColor=default;endArrow=none;endFill=0;exitX=0.5;exitY=1;exitDx=0;exitDy=0;shape=link;" parent="1" source="DSKI7EyAeoJrv0FDoOlX-105" target="DSKI7EyAeoJrv0FDoOlX-103" edge="1">
          <mxGeometry relative="1" as="geometry">
            <mxPoint x="-1122" y="1489.23" as="sourcePoint" />
            <mxPoint x="-780" y="1529.23" as="targetPoint" />
          </mxGeometry>
        </mxCell>
        <mxCell id="DSKI7EyAeoJrv0FDoOlX-104" value="M" style="edgeStyle=none;shape=link;rounded=0;orthogonalLoop=1;jettySize=auto;html=1;exitX=0;exitY=1;exitDx=0;exitDy=0;entryX=1;entryY=0.5;entryDx=0;entryDy=0;labelBackgroundColor=default;strokeColor=default;align=center;verticalAlign=middle;fontFamily=Helvetica;fontSize=11;fontColor=default;endArrow=none;endFill=0;" parent="1" source="DSKI7EyAeoJrv0FDoOlX-94" target="DSKI7EyAeoJrv0FDoOlX-103" edge="1">
          <mxGeometry relative="1" as="geometry" />
        </mxCell>
        <mxCell id="DSKI7EyAeoJrv0FDoOlX-94" value="has" style="rhombus;whiteSpace=wrap;html=1;rounded=0;strokeWidth=2;fillColor=#dae8fc;strokeColor=#6c8ebf;" parent="1" vertex="1">
          <mxGeometry x="-660" y="1184" width="80" height="80" as="geometry" />
        </mxCell>
        <mxCell id="DSKI7EyAeoJrv0FDoOlX-96" value="1" style="edgeStyle=none;shape=connector;rounded=0;orthogonalLoop=1;jettySize=auto;html=1;exitX=0.5;exitY=1;exitDx=0;exitDy=0;labelBackgroundColor=default;strokeColor=default;align=center;verticalAlign=middle;fontFamily=Helvetica;fontSize=11;fontColor=default;endArrow=none;endFill=0;entryX=1;entryY=0;entryDx=0;entryDy=0;" parent="1" source="rVrRJaUetaWtjt3BiSwA-2" target="DSKI7EyAeoJrv0FDoOlX-94" edge="1">
          <mxGeometry relative="1" as="geometry">
            <mxPoint y="1053.42" as="targetPoint" />
          </mxGeometry>
        </mxCell>
        <mxCell id="DSKI7EyAeoJrv0FDoOlX-102" style="edgeStyle=none;shape=connector;rounded=0;orthogonalLoop=1;jettySize=auto;html=1;exitX=1;exitY=0.5;exitDx=0;exitDy=0;entryX=0;entryY=0.5;entryDx=0;entryDy=0;labelBackgroundColor=default;strokeColor=default;align=center;verticalAlign=middle;fontFamily=Helvetica;fontSize=11;fontColor=default;endArrow=none;endFill=0;" parent="1" source="DSKI7EyAeoJrv0FDoOlX-101" target="rVrRJaUetaWtjt3BiSwA-2" edge="1">
          <mxGeometry relative="1" as="geometry" />
        </mxCell>
        <mxCell id="DSKI7EyAeoJrv0FDoOlX-101" value="original price" style="ellipse;whiteSpace=wrap;html=1;align=center;rounded=0;strokeColor=default;verticalAlign=middle;fontFamily=Helvetica;fontSize=12;fontColor=default;fillColor=default;" parent="1" vertex="1">
          <mxGeometry x="-400" y="363.42" width="100" height="40" as="geometry" />
        </mxCell>
        <mxCell id="DSKI7EyAeoJrv0FDoOlX-108" style="edgeStyle=none;shape=connector;rounded=0;orthogonalLoop=1;jettySize=auto;html=1;exitX=0.5;exitY=1;exitDx=0;exitDy=0;labelBackgroundColor=default;strokeColor=default;align=center;verticalAlign=middle;fontFamily=Helvetica;fontSize=11;fontColor=default;endArrow=none;endFill=0;" parent="1" source="DSKI7EyAeoJrv0FDoOlX-103" target="DSKI7EyAeoJrv0FDoOlX-107" edge="1">
          <mxGeometry relative="1" as="geometry" />
        </mxCell>
        <mxCell id="f6Bqa9t4RdQO3D29W2uO-11" style="rounded=0;orthogonalLoop=1;jettySize=auto;html=1;entryX=0.5;entryY=1;entryDx=0;entryDy=0;endArrow=none;endFill=0;exitX=1;exitY=0.5;exitDx=0;exitDy=0;" parent="1" source="DSKI7EyAeoJrv0FDoOlX-103" target="f6Bqa9t4RdQO3D29W2uO-10" edge="1">
          <mxGeometry relative="1" as="geometry" />
        </mxCell>
        <mxCell id="f6Bqa9t4RdQO3D29W2uO-17" value="1" style="edgeLabel;html=1;align=center;verticalAlign=middle;resizable=0;points=[];fontSize=11;fontFamily=Helvetica;fontColor=default;" parent="f6Bqa9t4RdQO3D29W2uO-11" vertex="1" connectable="0">
          <mxGeometry x="-0.1207" y="-1" relative="1" as="geometry">
            <mxPoint y="1" as="offset" />
          </mxGeometry>
        </mxCell>
        <mxCell id="DSKI7EyAeoJrv0FDoOlX-103" value="Order-Item" style="rounded=0;whiteSpace=wrap;html=1;strokeWidth=2;fillColor=#f8cecc;strokeColor=#b85450;" parent="1" vertex="1">
          <mxGeometry x="-1032" y="1489" width="100" height="40" as="geometry" />
        </mxCell>
        <mxCell id="DSKI7EyAeoJrv0FDoOlX-105" value="has" style="rhombus;whiteSpace=wrap;html=1;rounded=0;strokeWidth=2;fillColor=#dae8fc;strokeColor=#6c8ebf;" parent="1" vertex="1">
          <mxGeometry x="-1022" y="1334" width="80" height="80" as="geometry" />
        </mxCell>
        <mxCell id="DSKI7EyAeoJrv0FDoOlX-107" value="&lt;u&gt;order-item-id&lt;/u&gt;" style="ellipse;whiteSpace=wrap;html=1;align=center;rounded=0;strokeColor=default;verticalAlign=middle;fontFamily=Helvetica;fontSize=12;fontColor=default;fillColor=default;" parent="1" vertex="1">
          <mxGeometry x="-1105" y="1594" width="100" height="40" as="geometry" />
        </mxCell>
        <mxCell id="f6Bqa9t4RdQO3D29W2uO-20" style="edgeStyle=none;shape=connector;rounded=0;orthogonalLoop=1;jettySize=auto;html=1;entryX=0;entryY=0.5;entryDx=0;entryDy=0;labelBackgroundColor=default;strokeColor=default;align=center;verticalAlign=middle;fontFamily=Helvetica;fontSize=11;fontColor=default;endArrow=none;endFill=0;" parent="1" source="DSKI7EyAeoJrv0FDoOlX-114" target="f6Bqa9t4RdQO3D29W2uO-3" edge="1">
          <mxGeometry relative="1" as="geometry" />
        </mxCell>
        <mxCell id="DSKI7EyAeoJrv0FDoOlX-114" value="rate" style="ellipse;whiteSpace=wrap;html=1;align=center;rounded=0;strokeColor=default;verticalAlign=middle;fontFamily=Helvetica;fontSize=12;fontColor=default;fillColor=default;" parent="1" vertex="1">
          <mxGeometry x="-832" y="943.4200000000001" width="100" height="40" as="geometry" />
        </mxCell>
        <mxCell id="DSKI7EyAeoJrv0FDoOlX-119" value="address-id" style="ellipse;whiteSpace=wrap;html=1;align=center;rounded=0;strokeColor=default;verticalAlign=middle;fontFamily=Helvetica;fontSize=12;fontColor=default;fillColor=default;fontStyle=4" parent="1" vertex="1">
          <mxGeometry x="-865" y="185.92000000000002" width="100" height="40" as="geometry" />
        </mxCell>
        <mxCell id="f6Bqa9t4RdQO3D29W2uO-3" value="review" style="rounded=0;whiteSpace=wrap;html=1;strokeWidth=2;fillColor=#f8cecc;strokeColor=#b85450;" parent="1" vertex="1">
          <mxGeometry x="-700" y="913.42" width="100" height="40" as="geometry" />
        </mxCell>
        <mxCell id="f6Bqa9t4RdQO3D29W2uO-6" value="&lt;u&gt;review-id&lt;/u&gt;" style="ellipse;whiteSpace=wrap;html=1;align=center;rounded=0;strokeColor=default;verticalAlign=middle;fontFamily=Helvetica;fontSize=12;fontColor=default;fillColor=default;" parent="1" vertex="1">
          <mxGeometry x="-832" y="888.4199999999998" width="100" height="40" as="geometry" />
        </mxCell>
        <mxCell id="f6Bqa9t4RdQO3D29W2uO-13" style="edgeStyle=none;shape=link;rounded=0;orthogonalLoop=1;jettySize=auto;html=1;entryX=0.5;entryY=0;entryDx=0;entryDy=0;labelBackgroundColor=default;strokeColor=default;align=center;verticalAlign=middle;fontFamily=Helvetica;fontSize=11;fontColor=default;endArrow=none;endFill=0;exitX=0.5;exitY=1;exitDx=0;exitDy=0;" parent="1" source="f6Bqa9t4RdQO3D29W2uO-9" target="f6Bqa9t4RdQO3D29W2uO-3" edge="1">
          <mxGeometry relative="1" as="geometry" />
        </mxCell>
        <mxCell id="f6Bqa9t4RdQO3D29W2uO-15" value="M" style="edgeLabel;html=1;align=center;verticalAlign=middle;resizable=0;points=[];fontSize=11;fontFamily=Helvetica;fontColor=default;" parent="f6Bqa9t4RdQO3D29W2uO-13" vertex="1" connectable="0">
          <mxGeometry x="0.1018" relative="1" as="geometry">
            <mxPoint x="-1" as="offset" />
          </mxGeometry>
        </mxCell>
        <mxCell id="f6Bqa9t4RdQO3D29W2uO-14" style="edgeStyle=none;shape=connector;rounded=0;orthogonalLoop=1;jettySize=auto;html=1;entryX=0.5;entryY=1;entryDx=0;entryDy=0;labelBackgroundColor=default;strokeColor=default;align=center;verticalAlign=middle;fontFamily=Helvetica;fontSize=11;fontColor=default;endArrow=none;endFill=0;exitX=0.5;exitY=0;exitDx=0;exitDy=0;" parent="1" source="f6Bqa9t4RdQO3D29W2uO-9" target="3DuY-Ulm5TOmBUNmaxVy-4" edge="1">
          <mxGeometry relative="1" as="geometry" />
        </mxCell>
        <mxCell id="f6Bqa9t4RdQO3D29W2uO-16" value="1" style="edgeLabel;html=1;align=center;verticalAlign=middle;resizable=0;points=[];fontSize=11;fontFamily=Helvetica;fontColor=default;" parent="f6Bqa9t4RdQO3D29W2uO-14" vertex="1" connectable="0">
          <mxGeometry x="-0.1789" y="1" relative="1" as="geometry">
            <mxPoint as="offset" />
          </mxGeometry>
        </mxCell>
        <mxCell id="f6Bqa9t4RdQO3D29W2uO-9" value="has" style="rhombus;whiteSpace=wrap;html=1;rounded=0;strokeWidth=2;fillColor=#dae8fc;strokeColor=#6c8ebf;" parent="1" vertex="1">
          <mxGeometry x="-690" y="706.42" width="80" height="80" as="geometry" />
        </mxCell>
        <mxCell id="f6Bqa9t4RdQO3D29W2uO-12" value="M" style="edgeStyle=none;shape=link;rounded=0;orthogonalLoop=1;jettySize=auto;html=1;entryX=0.5;entryY=1;entryDx=0;entryDy=0;labelBackgroundColor=default;strokeColor=default;align=center;verticalAlign=middle;fontFamily=Helvetica;fontSize=11;fontColor=default;endArrow=none;endFill=0;exitX=0.49;exitY=0.036;exitDx=0;exitDy=0;exitPerimeter=0;" parent="1" source="f6Bqa9t4RdQO3D29W2uO-10" target="f6Bqa9t4RdQO3D29W2uO-3" edge="1">
          <mxGeometry relative="1" as="geometry" />
        </mxCell>
        <mxCell id="f6Bqa9t4RdQO3D29W2uO-10" value="has" style="rhombus;whiteSpace=wrap;html=1;rounded=0;strokeWidth=2;fillColor=#dae8fc;strokeColor=#6c8ebf;" parent="1" vertex="1">
          <mxGeometry x="-760" y="1175" width="80" height="80" as="geometry" />
        </mxCell>
        <mxCell id="f6Bqa9t4RdQO3D29W2uO-18" style="edgeStyle=none;shape=connector;rounded=0;orthogonalLoop=1;jettySize=auto;html=1;labelBackgroundColor=default;strokeColor=default;align=center;verticalAlign=middle;fontFamily=Helvetica;fontSize=11;fontColor=default;endArrow=none;endFill=0;entryX=0;entryY=0.5;entryDx=0;entryDy=0;" parent="1" source="f6Bqa9t4RdQO3D29W2uO-6" target="f6Bqa9t4RdQO3D29W2uO-3" edge="1">
          <mxGeometry relative="1" as="geometry">
            <mxPoint x="-670" y="1006.67" as="targetPoint" />
          </mxGeometry>
        </mxCell>
        <mxCell id="f6Bqa9t4RdQO3D29W2uO-30" style="edgeStyle=none;shape=connector;rounded=0;orthogonalLoop=1;jettySize=auto;html=1;entryX=0.5;entryY=0;entryDx=0;entryDy=0;labelBackgroundColor=default;strokeColor=default;align=center;verticalAlign=middle;fontFamily=Helvetica;fontSize=11;fontColor=default;endArrow=none;endFill=0;" parent="1" source="f6Bqa9t4RdQO3D29W2uO-21" target="rVrRJaUetaWtjt3BiSwA-1" edge="1">
          <mxGeometry relative="1" as="geometry" />
        </mxCell>
        <mxCell id="f6Bqa9t4RdQO3D29W2uO-21" value="name" style="ellipse;whiteSpace=wrap;html=1;align=center;rounded=0;strokeColor=default;verticalAlign=middle;fontFamily=Helvetica;fontSize=12;fontColor=default;fillColor=default;" parent="1" vertex="1">
          <mxGeometry x="-670" y="1549.23" width="100" height="40" as="geometry" />
        </mxCell>
        <mxCell id="f6Bqa9t4RdQO3D29W2uO-22" value="last-name" style="ellipse;whiteSpace=wrap;html=1;align=center;rounded=0;strokeColor=default;verticalAlign=middle;fontFamily=Helvetica;fontSize=12;fontColor=default;fillColor=default;" parent="1" vertex="1">
          <mxGeometry x="-790" y="1529" width="100" height="40" as="geometry" />
        </mxCell>
        <mxCell id="f6Bqa9t4RdQO3D29W2uO-34" style="edgeStyle=none;shape=connector;rounded=0;orthogonalLoop=1;jettySize=auto;html=1;entryX=1;entryY=0.5;entryDx=0;entryDy=0;labelBackgroundColor=default;strokeColor=default;align=center;verticalAlign=middle;fontFamily=Helvetica;fontSize=11;fontColor=default;endArrow=none;endFill=0;" parent="1" source="f6Bqa9t4RdQO3D29W2uO-23" target="rVrRJaUetaWtjt3BiSwA-1" edge="1">
          <mxGeometry relative="1" as="geometry" />
        </mxCell>
        <mxCell id="f6Bqa9t4RdQO3D29W2uO-23" value="designation" style="ellipse;whiteSpace=wrap;html=1;align=center;rounded=0;strokeColor=default;verticalAlign=middle;fontFamily=Helvetica;fontSize=12;fontColor=default;fillColor=default;" parent="1" vertex="1">
          <mxGeometry x="-450" y="1590" width="100" height="40" as="geometry" />
        </mxCell>
        <mxCell id="f6Bqa9t4RdQO3D29W2uO-31" style="edgeStyle=none;shape=connector;rounded=0;orthogonalLoop=1;jettySize=auto;html=1;entryX=0.5;entryY=0;entryDx=0;entryDy=0;labelBackgroundColor=default;strokeColor=default;align=center;verticalAlign=middle;fontFamily=Helvetica;fontSize=11;fontColor=default;endArrow=none;endFill=0;" parent="1" source="f6Bqa9t4RdQO3D29W2uO-22" target="f6Bqa9t4RdQO3D29W2uO-21" edge="1">
          <mxGeometry relative="1" as="geometry" />
        </mxCell>
        <mxCell id="f6Bqa9t4RdQO3D29W2uO-35" value="provice" style="ellipse;whiteSpace=wrap;html=1;align=center;rounded=0;strokeColor=default;verticalAlign=middle;fontFamily=Helvetica;fontSize=12;fontColor=default;fillColor=default;" parent="1" vertex="1">
          <mxGeometry x="-1166" y="180" width="100" height="40" as="geometry" />
        </mxCell>
        <mxCell id="f6Bqa9t4RdQO3D29W2uO-36" value="email" style="ellipse;whiteSpace=wrap;html=1;align=center;rounded=0;strokeColor=default;verticalAlign=middle;fontFamily=Helvetica;fontSize=12;fontColor=default;fillColor=default;" parent="1" vertex="1">
          <mxGeometry x="-1166" y="225.92000000000002" width="100" height="40" as="geometry" />
        </mxCell>
        <mxCell id="f6Bqa9t4RdQO3D29W2uO-78" value="quantity" style="ellipse;whiteSpace=wrap;html=1;align=center;rounded=0;strokeColor=default;verticalAlign=middle;fontFamily=Helvetica;fontSize=12;fontColor=default;fillColor=default;" parent="1" vertex="1">
          <mxGeometry x="-1140" y="1549.23" width="100" height="40" as="geometry" />
        </mxCell>
        <mxCell id="f6Bqa9t4RdQO3D29W2uO-79" style="edgeStyle=none;shape=connector;rounded=0;orthogonalLoop=1;jettySize=auto;html=1;labelBackgroundColor=default;strokeColor=default;align=center;verticalAlign=middle;fontFamily=Helvetica;fontSize=11;fontColor=default;endArrow=none;endFill=0;entryX=0.5;entryY=1;entryDx=0;entryDy=0;" parent="1" source="f6Bqa9t4RdQO3D29W2uO-78" target="DSKI7EyAeoJrv0FDoOlX-103" edge="1">
          <mxGeometry relative="1" as="geometry">
            <mxPoint x="-982" y="1550" as="targetPoint" />
          </mxGeometry>
        </mxCell>
        <mxCell id="f6Bqa9t4RdQO3D29W2uO-80" value="payment-method" style="ellipse;whiteSpace=wrap;html=1;align=center;rounded=0;strokeColor=default;verticalAlign=middle;fontFamily=Helvetica;fontSize=12;fontColor=default;fillColor=default;" parent="1" vertex="1">
          <mxGeometry x="-932" y="1324.38" width="100" height="40" as="geometry" />
        </mxCell>
        <mxCell id="f6Bqa9t4RdQO3D29W2uO-81" value="shipping-fee" style="ellipse;whiteSpace=wrap;html=1;align=center;rounded=0;strokeColor=default;verticalAlign=middle;fontFamily=Helvetica;fontSize=12;fontColor=default;fillColor=default;" parent="1" vertex="1">
          <mxGeometry x="-900" y="1274.38" width="100" height="40" as="geometry" />
        </mxCell>
        <mxCell id="f6Bqa9t4RdQO3D29W2uO-82" style="edgeStyle=none;shape=connector;rounded=0;orthogonalLoop=1;jettySize=auto;html=1;labelBackgroundColor=default;strokeColor=default;align=center;verticalAlign=middle;fontFamily=Helvetica;fontSize=11;fontColor=default;endArrow=none;endFill=0;entryX=0.5;entryY=1;entryDx=0;entryDy=0;" parent="1" source="f6Bqa9t4RdQO3D29W2uO-81" target="DSKI7EyAeoJrv0FDoOlX-78" edge="1">
          <mxGeometry relative="1" as="geometry">
            <mxPoint x="-872" y="1080" as="targetPoint" />
          </mxGeometry>
        </mxCell>
        <mxCell id="f6Bqa9t4RdQO3D29W2uO-83" style="edgeStyle=none;shape=connector;rounded=0;orthogonalLoop=1;jettySize=auto;html=1;labelBackgroundColor=default;strokeColor=default;align=center;verticalAlign=middle;fontFamily=Helvetica;fontSize=11;fontColor=default;endArrow=none;endFill=0;entryX=0.5;entryY=1;entryDx=0;entryDy=0;" parent="1" source="f6Bqa9t4RdQO3D29W2uO-80" target="DSKI7EyAeoJrv0FDoOlX-78" edge="1">
          <mxGeometry relative="1" as="geometry">
            <mxPoint x="-912" y="1100" as="targetPoint" />
          </mxGeometry>
        </mxCell>
        <mxCell id="f6Bqa9t4RdQO3D29W2uO-85" value="price" style="ellipse;whiteSpace=wrap;html=1;align=center;rounded=0;strokeColor=default;verticalAlign=middle;fontFamily=Helvetica;fontSize=12;fontColor=default;fillColor=default;" parent="1" vertex="1">
          <mxGeometry x="-1000" y="1597" width="100" height="40" as="geometry" />
        </mxCell>
        <mxCell id="f6Bqa9t4RdQO3D29W2uO-86" value="discount" style="ellipse;whiteSpace=wrap;html=1;align=center;rounded=0;strokeColor=default;verticalAlign=middle;fontFamily=Helvetica;fontSize=12;fontColor=default;fillColor=default;" parent="1" vertex="1">
          <mxGeometry x="-960" y="1549.23" width="100" height="40" as="geometry" />
        </mxCell>
        <mxCell id="f6Bqa9t4RdQO3D29W2uO-87" style="edgeStyle=none;shape=connector;rounded=0;orthogonalLoop=1;jettySize=auto;html=1;entryX=0.5;entryY=1;entryDx=0;entryDy=0;labelBackgroundColor=default;strokeColor=default;align=center;verticalAlign=middle;fontFamily=Helvetica;fontSize=11;fontColor=default;endArrow=none;endFill=0;" parent="1" source="f6Bqa9t4RdQO3D29W2uO-85" target="DSKI7EyAeoJrv0FDoOlX-103" edge="1">
          <mxGeometry relative="1" as="geometry" />
        </mxCell>
        <mxCell id="f6Bqa9t4RdQO3D29W2uO-88" style="edgeStyle=none;shape=connector;rounded=0;orthogonalLoop=1;jettySize=auto;html=1;labelBackgroundColor=default;strokeColor=default;align=center;verticalAlign=middle;fontFamily=Helvetica;fontSize=11;fontColor=default;endArrow=none;endFill=0;entryX=0.5;entryY=1;entryDx=0;entryDy=0;" parent="1" source="f6Bqa9t4RdQO3D29W2uO-86" target="DSKI7EyAeoJrv0FDoOlX-103" edge="1">
          <mxGeometry relative="1" as="geometry">
            <mxPoint x="-982" y="1550" as="targetPoint" />
          </mxGeometry>
        </mxCell>
        <mxCell id="f6Bqa9t4RdQO3D29W2uO-91" style="edgeStyle=none;shape=connector;rounded=0;orthogonalLoop=1;jettySize=auto;html=1;labelBackgroundColor=default;strokeColor=default;align=center;verticalAlign=middle;fontFamily=Helvetica;fontSize=11;fontColor=default;endArrow=none;endFill=0;" parent="1" source="f6Bqa9t4RdQO3D29W2uO-89" target="rVrRJaUetaWtjt3BiSwA-2" edge="1">
          <mxGeometry relative="1" as="geometry" />
        </mxCell>
        <mxCell id="f6Bqa9t4RdQO3D29W2uO-96" value="M" style="edgeLabel;html=1;align=center;verticalAlign=middle;resizable=0;points=[];fontSize=11;fontFamily=Helvetica;fontColor=default;" parent="f6Bqa9t4RdQO3D29W2uO-91" vertex="1" connectable="0">
          <mxGeometry x="-0.3508" y="4" relative="1" as="geometry">
            <mxPoint as="offset" />
          </mxGeometry>
        </mxCell>
        <mxCell id="f6Bqa9t4RdQO3D29W2uO-92" style="edgeStyle=none;shape=connector;rounded=0;orthogonalLoop=1;jettySize=auto;html=1;labelBackgroundColor=default;strokeColor=default;align=center;verticalAlign=middle;fontFamily=Helvetica;fontSize=11;fontColor=default;endArrow=none;endFill=0;entryX=1;entryY=0;entryDx=0;entryDy=0;" parent="1" source="f6Bqa9t4RdQO3D29W2uO-89" edge="1" target="rVrRJaUetaWtjt3BiSwA-46">
          <mxGeometry relative="1" as="geometry">
            <mxPoint x="-140" y="1201" as="targetPoint" />
          </mxGeometry>
        </mxCell>
        <mxCell id="f6Bqa9t4RdQO3D29W2uO-95" value="1" style="edgeLabel;html=1;align=center;verticalAlign=middle;resizable=0;points=[];fontSize=11;fontFamily=Helvetica;fontColor=default;" parent="f6Bqa9t4RdQO3D29W2uO-92" vertex="1" connectable="0">
          <mxGeometry x="-0.1464" y="-3" relative="1" as="geometry">
            <mxPoint as="offset" />
          </mxGeometry>
        </mxCell>
        <mxCell id="f6Bqa9t4RdQO3D29W2uO-89" value="has" style="rhombus;whiteSpace=wrap;html=1;rounded=0;strokeWidth=2;fillColor=#dae8fc;strokeColor=#6c8ebf;" parent="1" vertex="1">
          <mxGeometry x="-220" y="706.4200000000001" width="80" height="80" as="geometry" />
        </mxCell>
        <mxCell id="f6Bqa9t4RdQO3D29W2uO-93" style="edgeStyle=none;shape=connector;rounded=0;orthogonalLoop=1;jettySize=auto;html=1;labelBackgroundColor=default;strokeColor=default;align=center;verticalAlign=middle;fontFamily=Helvetica;fontSize=11;fontColor=default;endArrow=none;endFill=0;entryX=0.5;entryY=1;entryDx=0;entryDy=0;" parent="1" source="f6Bqa9t4RdQO3D29W2uO-90" target="rVrRJaUetaWtjt3BiSwA-2" edge="1">
          <mxGeometry relative="1" as="geometry">
            <mxPoint x="-110" y="510" as="targetPoint" />
          </mxGeometry>
        </mxCell>
        <mxCell id="f6Bqa9t4RdQO3D29W2uO-97" value="M" style="edgeLabel;html=1;align=center;verticalAlign=middle;resizable=0;points=[];fontSize=11;fontFamily=Helvetica;fontColor=default;" parent="f6Bqa9t4RdQO3D29W2uO-93" vertex="1" connectable="0">
          <mxGeometry x="-0.4013" y="-3" relative="1" as="geometry">
            <mxPoint as="offset" />
          </mxGeometry>
        </mxCell>
        <mxCell id="f6Bqa9t4RdQO3D29W2uO-94" style="edgeStyle=none;shape=connector;rounded=0;orthogonalLoop=1;jettySize=auto;html=1;labelBackgroundColor=default;strokeColor=default;align=center;verticalAlign=middle;fontFamily=Helvetica;fontSize=11;fontColor=default;endArrow=none;endFill=0;entryX=0.5;entryY=0;entryDx=0;entryDy=0;" parent="1" source="f6Bqa9t4RdQO3D29W2uO-90" edge="1" target="YZjVqz2BdAuiKITETF3J-19">
          <mxGeometry relative="1" as="geometry">
            <mxPoint x="940" y="263.42" as="targetPoint" />
          </mxGeometry>
        </mxCell>
        <mxCell id="f6Bqa9t4RdQO3D29W2uO-98" value="1" style="edgeLabel;html=1;align=center;verticalAlign=middle;resizable=0;points=[];fontSize=11;fontFamily=Helvetica;fontColor=default;" parent="f6Bqa9t4RdQO3D29W2uO-94" vertex="1" connectable="0">
          <mxGeometry x="-0.2672" y="3" relative="1" as="geometry">
            <mxPoint x="1" as="offset" />
          </mxGeometry>
        </mxCell>
        <mxCell id="f6Bqa9t4RdQO3D29W2uO-90" value="has" style="rhombus;whiteSpace=wrap;html=1;rounded=0;strokeWidth=2;fillColor=#dae8fc;strokeColor=#6c8ebf;" parent="1" vertex="1">
          <mxGeometry x="-130" y="803.4200000000001" width="80" height="80" as="geometry" />
        </mxCell>
        <mxCell id="Ijkh2gBA8nk3W3cTy6b--1" value="first-name" style="ellipse;whiteSpace=wrap;html=1;align=center;rounded=0;strokeColor=default;verticalAlign=middle;fontFamily=Helvetica;fontSize=12;fontColor=default;fillColor=default;" parent="1" vertex="1">
          <mxGeometry x="-887" y="90" width="100" height="40" as="geometry" />
        </mxCell>
        <mxCell id="Ijkh2gBA8nk3W3cTy6b--2" value="last-name" style="ellipse;whiteSpace=wrap;html=1;align=center;rounded=0;strokeColor=default;verticalAlign=middle;fontFamily=Helvetica;fontSize=12;fontColor=default;fillColor=default;" parent="1" vertex="1">
          <mxGeometry x="-1000" y="90.00000000000001" width="100" height="40" as="geometry" />
        </mxCell>
        <mxCell id="Ijkh2gBA8nk3W3cTy6b--3" style="rounded=0;orthogonalLoop=1;jettySize=auto;html=1;endArrow=none;endFill=0;entryX=0.5;entryY=0;entryDx=0;entryDy=0;" parent="1" source="Ijkh2gBA8nk3W3cTy6b--2" target="DSKI7EyAeoJrv0FDoOlX-1" edge="1">
          <mxGeometry relative="1" as="geometry">
            <mxPoint x="-850" y="340" as="targetPoint" />
          </mxGeometry>
        </mxCell>
        <mxCell id="Ijkh2gBA8nk3W3cTy6b--4" style="edgeStyle=none;shape=connector;rounded=0;orthogonalLoop=1;jettySize=auto;html=1;entryX=0.5;entryY=0;entryDx=0;entryDy=0;labelBackgroundColor=default;strokeColor=default;align=center;verticalAlign=middle;fontFamily=Helvetica;fontSize=11;fontColor=default;endArrow=none;endFill=0;exitX=0;exitY=0.5;exitDx=0;exitDy=0;" parent="1" source="Ijkh2gBA8nk3W3cTy6b--1" target="DSKI7EyAeoJrv0FDoOlX-1" edge="1">
          <mxGeometry relative="1" as="geometry">
            <mxPoint x="-890" y="110" as="sourcePoint" />
          </mxGeometry>
        </mxCell>
        <mxCell id="Ijkh2gBA8nk3W3cTy6b--6" style="edgeStyle=none;shape=connector;rounded=0;orthogonalLoop=1;jettySize=auto;html=1;labelBackgroundColor=default;strokeColor=default;align=center;verticalAlign=middle;fontFamily=Helvetica;fontSize=11;fontColor=default;endArrow=none;endFill=0;entryX=0.5;entryY=0;entryDx=0;entryDy=0;" parent="1" source="Ijkh2gBA8nk3W3cTy6b--5" target="DSKI7EyAeoJrv0FDoOlX-1" edge="1">
          <mxGeometry relative="1" as="geometry">
            <mxPoint x="-850" y="152.5" as="targetPoint" />
          </mxGeometry>
        </mxCell>
        <mxCell id="Ijkh2gBA8nk3W3cTy6b--5" value="address" style="ellipse;whiteSpace=wrap;html=1;align=center;rounded=0;strokeColor=default;verticalAlign=middle;fontFamily=Helvetica;fontSize=12;fontColor=default;fillColor=default;" parent="1" vertex="1">
          <mxGeometry x="-1060" y="50" width="100" height="40" as="geometry" />
        </mxCell>
        <mxCell id="F204ptiLxSLy-oVJ7xWn-3" style="rounded=0;orthogonalLoop=1;jettySize=auto;html=1;entryX=0;entryY=0.5;entryDx=0;entryDy=0;endArrow=none;endFill=0;" parent="1" source="F204ptiLxSLy-oVJ7xWn-2" target="rVrRJaUetaWtjt3BiSwA-2" edge="1">
          <mxGeometry relative="1" as="geometry" />
        </mxCell>
        <mxCell id="F204ptiLxSLy-oVJ7xWn-2" value="measuring-unit" style="ellipse;whiteSpace=wrap;html=1;align=center;rounded=0;strokeColor=default;verticalAlign=middle;fontFamily=Helvetica;fontSize=12;fontColor=default;fillColor=default;" parent="1" vertex="1">
          <mxGeometry x="-370" y="443.4200000000001" width="100" height="40" as="geometry" />
        </mxCell>
        <mxCell id="d4Aw7Ti6KZfsxbNuvgAn-4" style="rounded=0;orthogonalLoop=1;jettySize=auto;html=1;entryX=0;entryY=0.5;entryDx=0;entryDy=0;endArrow=none;endFill=0;exitX=1;exitY=0.5;exitDx=0;exitDy=0;" parent="1" source="d4Aw7Ti6KZfsxbNuvgAn-1" target="d4Aw7Ti6KZfsxbNuvgAn-2" edge="1">
          <mxGeometry relative="1" as="geometry" />
        </mxCell>
        <mxCell id="d4Aw7Ti6KZfsxbNuvgAn-5" value="M" style="edgeLabel;html=1;align=center;verticalAlign=middle;resizable=0;points=[];fontSize=11;fontFamily=Helvetica;fontColor=default;" parent="d4Aw7Ti6KZfsxbNuvgAn-4" vertex="1" connectable="0">
          <mxGeometry x="-0.1804" y="1" relative="1" as="geometry">
            <mxPoint x="1" as="offset" />
          </mxGeometry>
        </mxCell>
        <mxCell id="d4Aw7Ti6KZfsxbNuvgAn-1" value="testimonial" style="rounded=0;whiteSpace=wrap;html=1;strokeWidth=2;fillColor=#f8cecc;strokeColor=#b85450;" parent="1" vertex="1">
          <mxGeometry x="-945" y="433.41999999999996" width="80" height="40" as="geometry" />
        </mxCell>
        <mxCell id="d4Aw7Ti6KZfsxbNuvgAn-3" value="1" style="rounded=0;orthogonalLoop=1;jettySize=auto;html=1;entryX=0;entryY=0.5;entryDx=0;entryDy=0;endArrow=none;endFill=0;exitX=0.5;exitY=0;exitDx=0;exitDy=0;" parent="1" source="d4Aw7Ti6KZfsxbNuvgAn-2" target="3DuY-Ulm5TOmBUNmaxVy-4" edge="1">
          <mxGeometry relative="1" as="geometry">
            <mxPoint x="-645" y="264.11000000000007" as="sourcePoint" />
          </mxGeometry>
        </mxCell>
        <mxCell id="d4Aw7Ti6KZfsxbNuvgAn-2" value="give" style="rhombus;whiteSpace=wrap;html=1;fillColor=#dae8fc;strokeColor=#6c8ebf;" parent="1" vertex="1">
          <mxGeometry x="-802" y="413.4200000000001" width="80" height="80" as="geometry" />
        </mxCell>
        <mxCell id="d4Aw7Ti6KZfsxbNuvgAn-9" style="edgeStyle=none;shape=connector;rounded=0;orthogonalLoop=1;jettySize=auto;html=1;labelBackgroundColor=default;strokeColor=default;align=center;verticalAlign=middle;fontFamily=Helvetica;fontSize=11;fontColor=default;endArrow=none;endFill=0;entryX=0.472;entryY=1.018;entryDx=0;entryDy=0;entryPerimeter=0;" parent="1" source="d4Aw7Ti6KZfsxbNuvgAn-6" target="d4Aw7Ti6KZfsxbNuvgAn-1" edge="1">
          <mxGeometry relative="1" as="geometry">
            <mxPoint x="-640" y="588" as="targetPoint" />
          </mxGeometry>
        </mxCell>
        <mxCell id="d4Aw7Ti6KZfsxbNuvgAn-6" value="&lt;u&gt;testimonial_id&lt;/u&gt;" style="ellipse;whiteSpace=wrap;html=1;align=center;rounded=0;strokeColor=default;verticalAlign=middle;fontFamily=Helvetica;fontSize=12;fontColor=default;fillColor=default;" parent="1" vertex="1">
          <mxGeometry x="-965" y="537.4200000000001" width="100" height="40" as="geometry" />
        </mxCell>
        <mxCell id="d4Aw7Ti6KZfsxbNuvgAn-10" style="edgeStyle=none;shape=connector;rounded=0;orthogonalLoop=1;jettySize=auto;html=1;labelBackgroundColor=default;strokeColor=default;align=center;verticalAlign=middle;fontFamily=Helvetica;fontSize=11;fontColor=default;endArrow=none;endFill=0;entryX=0.474;entryY=0.995;entryDx=0;entryDy=0;entryPerimeter=0;" parent="1" source="d4Aw7Ti6KZfsxbNuvgAn-7" target="d4Aw7Ti6KZfsxbNuvgAn-1" edge="1">
          <mxGeometry relative="1" as="geometry">
            <mxPoint x="-740" y="558" as="targetPoint" />
          </mxGeometry>
        </mxCell>
        <mxCell id="d4Aw7Ti6KZfsxbNuvgAn-7" value="review" style="ellipse;whiteSpace=wrap;html=1;align=center;rounded=0;strokeColor=default;verticalAlign=middle;fontFamily=Helvetica;fontSize=12;fontColor=default;fillColor=default;" parent="1" vertex="1">
          <mxGeometry x="-880" y="577.4200000000001" width="100" height="40" as="geometry" />
        </mxCell>
        <mxCell id="d4Aw7Ti6KZfsxbNuvgAn-11" style="edgeStyle=none;shape=connector;rounded=0;orthogonalLoop=1;jettySize=auto;html=1;labelBackgroundColor=default;strokeColor=default;align=center;verticalAlign=middle;fontFamily=Helvetica;fontSize=11;fontColor=default;endArrow=none;endFill=0;entryX=0.478;entryY=1.009;entryDx=0;entryDy=0;entryPerimeter=0;" parent="1" source="d4Aw7Ti6KZfsxbNuvgAn-8" target="d4Aw7Ti6KZfsxbNuvgAn-1" edge="1">
          <mxGeometry relative="1" as="geometry">
            <mxPoint x="-740" y="558" as="targetPoint" />
          </mxGeometry>
        </mxCell>
        <mxCell id="d4Aw7Ti6KZfsxbNuvgAn-8" value="rateing" style="ellipse;whiteSpace=wrap;html=1;align=center;rounded=0;strokeColor=default;verticalAlign=middle;fontFamily=Helvetica;fontSize=12;fontColor=default;fillColor=default;" parent="1" vertex="1">
          <mxGeometry x="-845" y="523.4200000000001" width="100" height="40" as="geometry" />
        </mxCell>
        <mxCell id="d4Aw7Ti6KZfsxbNuvgAn-12" style="edgeStyle=none;shape=connector;rounded=0;orthogonalLoop=1;jettySize=auto;html=1;labelBackgroundColor=default;strokeColor=default;align=center;verticalAlign=middle;fontFamily=Helvetica;fontSize=11;fontColor=default;endArrow=none;endFill=0;exitX=0;exitY=0.5;exitDx=0;exitDy=0;" parent="1" source="d4Aw7Ti6KZfsxbNuvgAn-15" target="d4Aw7Ti6KZfsxbNuvgAn-16" edge="1">
          <mxGeometry relative="1" as="geometry" />
        </mxCell>
        <mxCell id="d4Aw7Ti6KZfsxbNuvgAn-15" value="NewsLetter" style="rounded=0;whiteSpace=wrap;html=1;strokeWidth=2;fillColor=#f8cecc;strokeColor=#b85450;" parent="1" vertex="1">
          <mxGeometry x="-120" y="1597" width="100" height="40" as="geometry" />
        </mxCell>
        <mxCell id="d4Aw7Ti6KZfsxbNuvgAn-16" value="&lt;u&gt;newsletterId&lt;/u&gt;" style="ellipse;whiteSpace=wrap;html=1;align=center;rounded=0;strokeColor=default;verticalAlign=middle;fontFamily=Helvetica;fontSize=12;fontColor=default;fillColor=default;" parent="1" vertex="1">
          <mxGeometry x="-300" y="1590" width="100" height="40" as="geometry" />
        </mxCell>
        <mxCell id="d4Aw7Ti6KZfsxbNuvgAn-23" style="edgeStyle=none;shape=connector;rounded=0;orthogonalLoop=1;jettySize=auto;html=1;entryX=0;entryY=0.5;entryDx=0;entryDy=0;labelBackgroundColor=default;strokeColor=default;align=center;verticalAlign=middle;fontFamily=Helvetica;fontSize=11;fontColor=default;endArrow=none;endFill=0;" parent="1" source="d4Aw7Ti6KZfsxbNuvgAn-24" target="d4Aw7Ti6KZfsxbNuvgAn-15" edge="1">
          <mxGeometry relative="1" as="geometry" />
        </mxCell>
        <mxCell id="d4Aw7Ti6KZfsxbNuvgAn-24" value="email" style="ellipse;whiteSpace=wrap;html=1;align=center;rounded=0;strokeColor=default;verticalAlign=middle;fontFamily=Helvetica;fontSize=12;fontColor=default;fillColor=default;" parent="1" vertex="1">
          <mxGeometry x="-245" y="1549.23" width="100" height="40" as="geometry" />
        </mxCell>
        <mxCell id="8Ajd_Qfqa1L-vim18DAo-3" style="rounded=0;orthogonalLoop=1;jettySize=auto;html=1;endArrow=none;endFill=0;entryX=0.5;entryY=1;entryDx=0;entryDy=0;" edge="1" parent="1" source="8Ajd_Qfqa1L-vim18DAo-1" target="DSKI7EyAeoJrv0FDoOlX-78">
          <mxGeometry relative="1" as="geometry">
            <mxPoint x="-952.0000000000002" y="1170" as="targetPoint" />
          </mxGeometry>
        </mxCell>
        <mxCell id="8Ajd_Qfqa1L-vim18DAo-1" value="number-of-items" style="ellipse;whiteSpace=wrap;html=1;align=center;rounded=0;strokeColor=default;verticalAlign=middle;fontFamily=Helvetica;fontSize=12;fontColor=default;fillColor=default;" vertex="1" parent="1">
          <mxGeometry x="-1162" y="1290" width="100" height="40" as="geometry" />
        </mxCell>
        <mxCell id="8Ajd_Qfqa1L-vim18DAo-2" value="order-status" style="ellipse;whiteSpace=wrap;html=1;align=center;rounded=0;strokeColor=default;verticalAlign=middle;fontFamily=Helvetica;fontSize=12;fontColor=default;fillColor=default;" vertex="1" parent="1">
          <mxGeometry x="-1122" y="1330" width="100" height="40" as="geometry" />
        </mxCell>
        <mxCell id="8Ajd_Qfqa1L-vim18DAo-4" style="edgeStyle=none;shape=connector;rounded=0;orthogonalLoop=1;jettySize=auto;html=1;entryX=0.5;entryY=1;entryDx=0;entryDy=0;labelBackgroundColor=default;strokeColor=default;align=center;verticalAlign=middle;fontFamily=Helvetica;fontSize=11;fontColor=default;endArrow=none;endFill=0;" edge="1" parent="1" source="8Ajd_Qfqa1L-vim18DAo-2" target="DSKI7EyAeoJrv0FDoOlX-78">
          <mxGeometry relative="1" as="geometry" />
        </mxCell>
        <mxCell id="8Ajd_Qfqa1L-vim18DAo-13" style="edgeStyle=none;shape=connector;rounded=0;orthogonalLoop=1;jettySize=auto;html=1;labelBackgroundColor=default;strokeColor=default;align=center;verticalAlign=middle;fontFamily=Helvetica;fontSize=11;fontColor=default;endArrow=none;endFill=0;exitX=0.5;exitY=0;exitDx=0;exitDy=0;" edge="1" parent="1" source="8Ajd_Qfqa1L-vim18DAo-9" target="DSKI7EyAeoJrv0FDoOlX-1">
          <mxGeometry relative="1" as="geometry">
            <mxPoint x="-1050" y="890" as="sourcePoint" />
          </mxGeometry>
        </mxCell>
        <mxCell id="8Ajd_Qfqa1L-vim18DAo-15" value="1" style="edgeLabel;html=1;align=center;verticalAlign=middle;resizable=0;points=[];fontSize=11;fontFamily=Helvetica;fontColor=default;" vertex="1" connectable="0" parent="8Ajd_Qfqa1L-vim18DAo-13">
          <mxGeometry x="-0.4987" y="-3" relative="1" as="geometry">
            <mxPoint as="offset" />
          </mxGeometry>
        </mxCell>
        <mxCell id="8Ajd_Qfqa1L-vim18DAo-9" value="billing" style="rhombus;whiteSpace=wrap;html=1;rounded=0;strokeWidth=2;fillColor=#dae8fc;strokeColor=#6c8ebf;" vertex="1" parent="1">
          <mxGeometry x="-1090" y="893.42" width="80" height="80" as="geometry" />
        </mxCell>
        <mxCell id="8Ajd_Qfqa1L-vim18DAo-12" style="edgeStyle=none;shape=connector;rounded=0;orthogonalLoop=1;jettySize=auto;html=1;entryX=0.5;entryY=0;entryDx=0;entryDy=0;labelBackgroundColor=default;strokeColor=default;align=center;verticalAlign=middle;fontFamily=Helvetica;fontSize=11;fontColor=default;endArrow=none;endFill=0;exitX=0.5;exitY=1;exitDx=0;exitDy=0;" edge="1" parent="1" source="8Ajd_Qfqa1L-vim18DAo-10" target="DSKI7EyAeoJrv0FDoOlX-78">
          <mxGeometry relative="1" as="geometry" />
        </mxCell>
        <mxCell id="8Ajd_Qfqa1L-vim18DAo-18" value="m" style="edgeLabel;html=1;align=center;verticalAlign=middle;resizable=0;points=[];fontSize=11;fontFamily=Helvetica;fontColor=default;" vertex="1" connectable="0" parent="8Ajd_Qfqa1L-vim18DAo-12">
          <mxGeometry x="-0.1022" y="4" relative="1" as="geometry">
            <mxPoint as="offset" />
          </mxGeometry>
        </mxCell>
        <mxCell id="8Ajd_Qfqa1L-vim18DAo-14" style="edgeStyle=none;shape=connector;rounded=0;orthogonalLoop=1;jettySize=auto;html=1;entryX=0.5;entryY=1;entryDx=0;entryDy=0;labelBackgroundColor=default;strokeColor=default;align=center;verticalAlign=middle;fontFamily=Helvetica;fontSize=11;fontColor=default;endArrow=none;endFill=0;" edge="1" parent="1" source="8Ajd_Qfqa1L-vim18DAo-10" target="DSKI7EyAeoJrv0FDoOlX-1">
          <mxGeometry relative="1" as="geometry" />
        </mxCell>
        <mxCell id="8Ajd_Qfqa1L-vim18DAo-16" value="1" style="edgeLabel;html=1;align=center;verticalAlign=middle;resizable=0;points=[];fontSize=11;fontFamily=Helvetica;fontColor=default;" vertex="1" connectable="0" parent="8Ajd_Qfqa1L-vim18DAo-14">
          <mxGeometry x="-0.3552" y="-4" relative="1" as="geometry">
            <mxPoint y="-1" as="offset" />
          </mxGeometry>
        </mxCell>
        <mxCell id="8Ajd_Qfqa1L-vim18DAo-10" value="shipping" style="rhombus;whiteSpace=wrap;html=1;rounded=0;strokeWidth=2;fillColor=#dae8fc;strokeColor=#6c8ebf;" vertex="1" parent="1">
          <mxGeometry x="-980" y="900" width="80" height="80" as="geometry" />
        </mxCell>
        <mxCell id="8Ajd_Qfqa1L-vim18DAo-20" style="edgeStyle=none;shape=connector;rounded=0;orthogonalLoop=1;jettySize=auto;html=1;entryX=0.5;entryY=1;entryDx=0;entryDy=0;labelBackgroundColor=default;strokeColor=default;align=center;verticalAlign=middle;fontFamily=Helvetica;fontSize=11;fontColor=default;endArrow=none;endFill=0;" edge="1" parent="1" source="8Ajd_Qfqa1L-vim18DAo-19" target="DSKI7EyAeoJrv0FDoOlX-78">
          <mxGeometry relative="1" as="geometry" />
        </mxCell>
        <mxCell id="8Ajd_Qfqa1L-vim18DAo-19" value="payement-status" style="ellipse;whiteSpace=wrap;html=1;align=center;rounded=0;strokeColor=default;verticalAlign=middle;fontFamily=Helvetica;fontSize=12;fontColor=default;fillColor=default;" vertex="1" parent="1">
          <mxGeometry x="-1166" y="1174" width="100" height="40" as="geometry" />
        </mxCell>
        <mxCell id="8Ajd_Qfqa1L-vim18DAo-23" value="" style="rounded=0;orthogonalLoop=1;jettySize=auto;html=1;exitX=0.5;exitY=0;exitDx=0;exitDy=0;endArrow=none;endFill=0;" edge="1" parent="1" source="3DuY-Ulm5TOmBUNmaxVy-4" target="rVrRJaUetaWtjt3BiSwA-4">
          <mxGeometry relative="1" as="geometry">
            <mxPoint x="-650" y="313" as="sourcePoint" />
            <mxPoint x="-433" y="151" as="targetPoint" />
          </mxGeometry>
        </mxCell>
        <mxCell id="rVrRJaUetaWtjt3BiSwA-4" value="phone-number" style="ellipse;whiteSpace=wrap;html=1;align=center;rounded=0;strokeColor=default;verticalAlign=middle;fontFamily=Helvetica;fontSize=12;fontColor=default;fillColor=default;" parent="1" vertex="1">
          <mxGeometry x="-560" y="197.42000000000002" width="100" height="40" as="geometry" />
        </mxCell>
        <mxCell id="8Ajd_Qfqa1L-vim18DAo-28" style="edgeStyle=none;shape=connector;rounded=0;orthogonalLoop=1;jettySize=auto;html=1;entryX=0.5;entryY=0;entryDx=0;entryDy=0;labelBackgroundColor=default;strokeColor=default;align=center;verticalAlign=middle;fontFamily=Helvetica;fontSize=11;fontColor=default;endArrow=none;endFill=0;" edge="1" parent="1" source="8Ajd_Qfqa1L-vim18DAo-27" target="rVrRJaUetaWtjt3BiSwA-18">
          <mxGeometry relative="1" as="geometry" />
        </mxCell>
        <mxCell id="8Ajd_Qfqa1L-vim18DAo-27" value="added-date" style="ellipse;whiteSpace=wrap;html=1;align=center;rounded=0;strokeColor=default;verticalAlign=middle;fontFamily=Helvetica;fontSize=12;fontColor=default;fillColor=default;" vertex="1" parent="1">
          <mxGeometry x="-130" y="37.99999999999994" width="100" height="40" as="geometry" />
        </mxCell>
        <mxCell id="8Ajd_Qfqa1L-vim18DAo-44" style="edgeStyle=none;shape=connector;rounded=0;orthogonalLoop=1;jettySize=auto;html=1;entryX=0.5;entryY=0;entryDx=0;entryDy=0;labelBackgroundColor=default;strokeColor=default;align=center;verticalAlign=middle;fontFamily=Helvetica;fontSize=11;fontColor=default;endArrow=none;endFill=0;" edge="1" parent="1" source="8Ajd_Qfqa1L-vim18DAo-43" target="f6Bqa9t4RdQO3D29W2uO-21">
          <mxGeometry relative="1" as="geometry" />
        </mxCell>
        <mxCell id="8Ajd_Qfqa1L-vim18DAo-43" value="first-name" style="ellipse;whiteSpace=wrap;html=1;align=center;rounded=0;strokeColor=default;verticalAlign=middle;fontFamily=Helvetica;fontSize=12;fontColor=default;fillColor=default;" vertex="1" parent="1">
          <mxGeometry x="-745" y="1480" width="100" height="40" as="geometry" />
        </mxCell>
      </root>
    </mxGraphModel>
  </diagram>
</mxfile>
